<svg width="46" height="46" viewBox="0 0 46 46" fill="none" xmlns="http://www.w3.org/2000/svg">
<path d="M8.50898 9.83459L9.81855 12.5416L12.7893 12.9459C13.3781 13.025 13.5891 13.7545 13.1848 14.1412L11.0139 16.2242L11.55 19.1774C11.6555 19.7574 11.0402 20.1969 10.5305 19.9156L7.88496 18.4918L5.23945 19.9156C4.72968 20.1881 4.08808 19.7662 4.22871 19.1334L4.75605 16.2155L2.58515 14.1324C2.16328 13.7281 2.39179 13.0074 2.98945 12.9283L5.95136 12.524L7.26093 9.81702C7.50703 9.29846 8.26289 9.30725 8.50898 9.83459ZM8.71992 13.4908L7.88496 11.7506L7.04121 13.4908C6.94453 13.693 6.74238 13.8512 6.50507 13.8864L4.59785 14.1412L5.99531 15.4772C6.15351 15.6354 6.2414 15.8639 6.19746 16.1012L5.85468 17.9996L7.54218 17.0944C7.74433 16.9889 7.99921 16.9713 8.21015 17.0944L9.90644 18.0084L9.57246 16.1451C9.51972 15.9166 9.58124 15.6617 9.76582 15.4772L11.1633 14.1412L9.27363 13.8864C9.04511 13.86 8.82539 13.7106 8.71992 13.4908ZM23.468 3.46252L24.7775 6.16956L27.757 6.57385C28.3459 6.65295 28.5568 7.38245 28.1525 7.77795L25.9816 9.86096L26.5178 12.8141C26.6232 13.3942 26.008 13.8336 25.4982 13.5524L22.8351 12.1285L20.1896 13.5524C19.6799 13.8248 19.0383 13.403 19.1789 12.7701L19.7062 9.85217L17.5266 7.76916C17.1047 7.36487 17.3332 6.64416 17.9309 6.56506L20.8928 6.16077L22.2023 3.46252C22.466 2.92639 23.2131 2.93518 23.468 3.46252ZM23.6789 7.11877L22.8351 5.37854L22.0002 7.11877C21.9035 7.32092 21.7014 7.47913 21.4641 7.51428L19.548 7.76916L20.9455 9.1051C21.1125 9.2633 21.1916 9.49182 21.1477 9.72913L20.8049 11.6276L22.5012 10.7223C22.7033 10.6168 22.9494 10.5992 23.1691 10.7223L24.8654 11.6364L24.5314 9.77307C24.4787 9.54455 24.5402 9.28967 24.7248 9.1051L26.1223 7.76916L24.2326 7.50549C23.9953 7.48791 23.7844 7.3385 23.6789 7.11877ZM38.4182 9.83459L39.7277 12.5416L42.6984 12.9459C43.2873 13.025 43.507 13.7545 43.0939 14.1412L40.923 16.2242L41.4592 19.1774C41.5646 19.7574 40.9494 20.1969 40.4396 19.9156L37.7941 18.4918L35.1486 19.9156C34.6389 20.1881 33.9973 19.7662 34.1291 19.1334L34.6564 16.2155L32.4855 14.1324C32.0637 13.7281 32.2922 13.0074 32.8898 12.9283L35.8518 12.524L37.1613 9.81702C37.4162 9.29846 38.1721 9.30725 38.4182 9.83459ZM38.6291 13.4908L37.7941 11.7506L36.9504 13.4908C36.8537 13.693 36.6603 13.8512 36.4143 13.8864L34.507 14.1412L35.8957 15.4772C36.0539 15.6354 36.1418 15.8639 36.0978 16.1012L35.7551 17.9996L37.4514 17.0944C37.6535 16.9889 37.9084 16.9713 38.1193 17.0944L39.8244 18.0084L39.4904 16.1451C39.4377 15.9166 39.4992 15.6617 39.6838 15.4772L41.0725 14.1412L39.1828 13.8864C38.9543 13.86 38.7346 13.7106 38.6291 13.4908ZM19.5744 27.7819C19.381 27.4479 19.4953 27.0172 19.8293 26.8239C20.1633 26.6305 20.5939 26.7448 20.7873 27.0787L21.7101 28.6783L24.9885 25.4C25.2609 25.1276 25.7092 25.1276 25.9816 25.4C26.2541 25.6725 26.2541 26.1207 25.9816 26.3932L22.0529 30.3219C21.7277 30.6471 21.1828 30.5768 20.9543 30.1813L19.5744 27.7819ZM22.8351 20.3551C26.6584 20.3551 29.7609 23.4576 29.7609 27.2809C29.7609 31.1041 26.6584 34.2067 22.8351 34.2067C19.0119 34.2067 15.9094 31.1041 15.9094 27.2809C15.9094 23.4576 19.0119 20.3551 22.8351 20.3551ZM26.7375 23.3785C24.5842 21.2252 21.0861 21.2252 18.9328 23.3785C16.7795 25.5319 16.7795 29.0299 18.9328 31.1832C21.0861 33.3365 24.5842 33.3365 26.7375 31.1832C28.8908 29.0211 28.8908 25.5319 26.7375 23.3785ZM22.8351 16.0045C29.0578 16.0045 34.1027 21.0494 34.1027 27.2721C34.1027 29.6276 33.382 31.816 32.1428 33.6266L35.509 39.4537C35.8342 39.9987 35.3859 40.6139 34.8059 40.526L31.3605 39.9811L29.5148 42.2487C29.1896 42.6705 28.5832 42.6002 28.3459 42.1783L25.9904 38.1002C23.9338 38.6979 21.7277 38.6979 19.6799 38.1002L17.3244 42.1783C17.0871 42.6002 16.4807 42.6705 16.1555 42.2487L14.3098 39.9811L10.8644 40.526C10.2756 40.6227 9.86249 39.9811 10.1437 39.4801L13.5275 33.6266C10.4689 29.153 11.0402 23.1324 14.8723 19.3004C16.9025 17.2701 19.7238 16.0045 22.8351 16.0045ZM31.2111 34.8131C30.1389 36.0084 28.8205 36.9664 27.3264 37.6168L29.049 40.5963L30.5256 38.7858C30.6926 38.5748 30.9475 38.4957 31.1936 38.5397L33.5666 38.9176L31.2111 34.8131ZM18.3352 37.6168C16.8498 36.9664 15.5314 36.0084 14.4592 34.8219L12.0949 38.9176L14.468 38.5397C14.7053 38.4957 14.9689 38.5836 15.1359 38.7858L16.6125 40.5963L18.3352 37.6168ZM29.8137 20.3024C25.9641 16.4528 19.715 16.4528 15.8654 20.3024C12.0158 24.152 12.0158 30.401 15.8654 34.2506C19.7238 38.1002 25.9641 38.1002 29.8137 34.2506C33.6633 30.401 33.6633 24.152 29.8137 20.3024Z" fill="white"/>
</svg>
