<svg xmlns="http://www.w3.org/2000/svg" enable-background="new 0 0 1024 1024" viewBox="0 0 1024 1024" id="financing">
  <g fill="#ffffff" class="color000000 svgShape">
    <path d="M464,489.81c29.78,0,54,24.22,54,54h20c0-40.8-33.2-74-74-74h-6v-22h-20v22h-6c-40.8,0-74,33.2-74,74s33.2,74,74,74h6v108
		h-6c-29.78,0-54-24.22-54-54h-20c0,40.8,33.2,74,74,74h6v22h20v-22h6c40.8,0,74-33.2,74-74s-33.2-74-74-74h-6v-108H464z
		 M464,617.81c29.78,0,54,24.22,54,54s-24.22,54-54,54h-6v-108H464z M438,597.81h-6c-29.78,0-54-24.22-54-54s24.22-54,54-54h6
		V597.81z" fill="#ffffff" class="color000000 svgShape"></path>
    <polygon points="774 320 794 320 794 282 832 282 832 262 794 262 794 224 774 224 774 262 736 262 736 282 774 282" fill="#ffffff" class="color000000 svgShape"></polygon>
    <path d="M752,550c-8.78,0-17.57,0.27-26.26,0.79L539.18,286.32l43.17-118.72c4.88-13.43,1.73-28.14-8.24-38.38
		c-9.97-10.24-24.58-13.8-38.14-9.28l-69.23,23.08c-12.08,4.03-25.39,4.03-37.48,0l-69.23-23.08c-13.56-4.52-28.17-0.96-38.14,9.28
		c-9.97,10.24-13.13,24.95-8.24,38.38l43.2,118.81l-203.11,297.9C130.36,618.6,118,658.66,118,700.16
		c0,113.39,92.25,205.65,205.65,205.65H640v-0.79C669.5,916.25,710.88,922,752,922c76.53,0,154-19.92,154-58v-64v-64v-64v-64
		C906,569.92,828.53,550,752,550z M886,766.04V800c0,5.26-7.9,14.35-30.17,22.63C829.61,832.4,791.76,838,752,838
		s-77.61-5.6-103.83-15.37C625.9,814.35,618,805.26,618,800v-33.96c0.2,0.13,0.42,0.26,0.62,0.39c0.41,0.26,0.82,0.53,1.25,0.79
		c0.34,0.21,0.69,0.42,1.04,0.63c0.43,0.26,0.87,0.52,1.31,0.77c0.37,0.21,0.74,0.42,1.11,0.63c0.46,0.26,0.92,0.51,1.39,0.76
		c0.39,0.21,0.78,0.42,1.18,0.63c0.49,0.25,0.99,0.51,1.49,0.76c0.41,0.21,0.82,0.41,1.24,0.62c0.53,0.26,1.07,0.51,1.62,0.77
		c0.42,0.2,0.84,0.4,1.27,0.59c0.59,0.27,1.2,0.53,1.8,0.8c0.42,0.18,0.82,0.36,1.25,0.54c0.69,0.29,1.41,0.59,2.13,0.88
		c0.37,0.15,0.72,0.3,1.09,0.45c1.1,0.44,2.23,0.88,3.4,1.31C669.56,787.94,709.95,794,752,794s82.44-6.06,110.81-16.63
		c1.16-0.43,2.29-0.87,3.4-1.31c0.37-0.15,0.72-0.3,1.09-0.45c0.72-0.29,1.44-0.59,2.14-0.88c0.42-0.18,0.82-0.36,1.23-0.54
		c0.62-0.27,1.23-0.54,1.83-0.81c0.42-0.19,0.83-0.39,1.24-0.58c0.56-0.26,1.11-0.52,1.65-0.78c0.41-0.2,0.81-0.4,1.2-0.6
		c0.52-0.26,1.03-0.52,1.53-0.78c0.39-0.2,0.77-0.41,1.15-0.61c0.48-0.26,0.96-0.52,1.43-0.78c0.37-0.21,0.73-0.41,1.08-0.62
		c0.45-0.26,0.9-0.52,1.34-0.79c0.34-0.21,0.69-0.41,1.02-0.62c0.43-0.26,0.84-0.53,1.26-0.8C885.58,766.31,885.8,766.17,886,766.04
		z M886,702.04V736c0,5.26-7.9,14.35-30.17,22.63C829.61,768.4,791.76,774,752,774s-77.61-5.6-103.83-15.37
		C625.9,750.35,618,741.26,618,736v-33.96c0.2,0.13,0.42,0.26,0.62,0.39c0.41,0.26,0.82,0.53,1.25,0.79
		c0.34,0.21,0.69,0.42,1.04,0.63c0.43,0.26,0.87,0.52,1.31,0.77c0.37,0.21,0.74,0.42,1.11,0.63c0.46,0.26,0.92,0.51,1.39,0.76
		c0.39,0.21,0.78,0.42,1.18,0.63c0.49,0.25,0.99,0.51,1.49,0.76c0.41,0.21,0.82,0.41,1.24,0.62c0.53,0.26,1.07,0.51,1.62,0.77
		c0.42,0.2,0.84,0.4,1.27,0.59c0.59,0.27,1.2,0.53,1.8,0.8c0.42,0.18,0.82,0.36,1.25,0.54c0.69,0.29,1.41,0.59,2.13,0.88
		c0.37,0.15,0.72,0.3,1.09,0.45c1.1,0.44,2.23,0.88,3.4,1.31C669.56,723.94,709.95,730,752,730s82.44-6.06,110.81-16.63
		c1.16-0.43,2.29-0.87,3.4-1.31c0.37-0.15,0.72-0.3,1.09-0.45c0.72-0.29,1.44-0.59,2.14-0.88c0.42-0.18,0.82-0.36,1.23-0.54
		c0.62-0.27,1.23-0.54,1.83-0.81c0.42-0.19,0.83-0.39,1.24-0.58c0.56-0.26,1.11-0.52,1.65-0.78c0.41-0.2,0.81-0.4,1.2-0.6
		c0.52-0.26,1.03-0.52,1.53-0.78c0.39-0.2,0.77-0.41,1.15-0.61c0.48-0.26,0.96-0.52,1.43-0.78c0.37-0.21,0.73-0.41,1.08-0.62
		c0.45-0.26,0.9-0.52,1.34-0.79c0.34-0.21,0.69-0.41,1.02-0.62c0.43-0.26,0.84-0.53,1.26-0.8C885.58,702.31,885.8,702.17,886,702.04
		z M886,638.04V672c0,5.26-7.9,14.35-30.17,22.63C829.61,704.4,791.76,710,752,710s-77.61-5.6-103.83-15.37
		C625.9,686.35,618,677.26,618,672v-33.96c0.2,0.13,0.42,0.26,0.62,0.39c0.41,0.26,0.82,0.53,1.25,0.79
		c0.34,0.21,0.69,0.42,1.04,0.63c0.43,0.26,0.87,0.52,1.31,0.77c0.37,0.21,0.74,0.42,1.11,0.63c0.46,0.26,0.92,0.51,1.39,0.76
		c0.39,0.21,0.78,0.42,1.18,0.63c0.49,0.25,0.99,0.51,1.49,0.76c0.41,0.21,0.82,0.41,1.24,0.62c0.53,0.26,1.07,0.51,1.62,0.77
		c0.42,0.2,0.84,0.4,1.27,0.59c0.59,0.27,1.2,0.53,1.8,0.8c0.42,0.18,0.82,0.36,1.25,0.54c0.69,0.29,1.41,0.59,2.13,0.88
		c0.37,0.15,0.72,0.3,1.09,0.45c1.1,0.44,2.23,0.88,3.4,1.31C669.56,659.94,709.95,666,752,666s82.44-6.06,110.81-16.63
		c1.16-0.43,2.29-0.87,3.4-1.31c0.37-0.15,0.72-0.3,1.09-0.45c0.72-0.29,1.44-0.59,2.14-0.88c0.42-0.18,0.82-0.36,1.23-0.54
		c0.62-0.27,1.23-0.54,1.83-0.81c0.42-0.19,0.83-0.39,1.24-0.58c0.56-0.26,1.11-0.52,1.65-0.78c0.41-0.2,0.81-0.4,1.2-0.6
		c0.52-0.26,1.03-0.52,1.53-0.78c0.39-0.2,0.77-0.41,1.15-0.61c0.48-0.26,0.96-0.52,1.43-0.78c0.37-0.21,0.73-0.41,1.08-0.62
		c0.45-0.26,0.9-0.52,1.34-0.79c0.34-0.21,0.69-0.41,1.02-0.62c0.43-0.26,0.84-0.53,1.26-0.8C885.58,638.31,885.8,638.17,886,638.04
		z M850.66,583.55C876.75,592.24,886,602.15,886,608c0,5.26-7.9,14.35-30.17,22.63C829.61,640.4,791.76,646,752,646
		s-77.61-5.6-103.83-15.37C625.9,622.35,618,613.26,618,608c0-5.85,9.25-15.76,35.34-24.45C679.54,574.81,714.58,570,752,570
		C789.42,570,824.46,574.81,850.66,583.55z M336.22,143.17c4.64-4.77,11.17-6.36,17.48-4.25L422.94,162
		c16.16,5.39,33.96,5.39,50.13,0l69.23-23.08c6.31-2.1,12.85-0.51,17.48,4.25s6.05,11.34,3.78,17.59L521,277.81h-63v-54h-20v54h-63
		l-42.56-117.05C330.17,154.51,331.58,147.94,336.22,143.17z M138,700.16c0-37.46,11.16-73.63,32.26-104.58l203.02-297.77h149.53
		l179.88,255.01C645.41,559.54,598,578.21,598,608v64v64v64v64c0,8.1,3.51,15.37,9.77,21.81H323.65
		C221.28,885.81,138,802.53,138,700.16z M886,864c0,5.85-9.25,15.76-35.34,24.45C824.46,897.19,789.42,902,752,902
		s-72.46-4.81-98.66-13.55C627.25,879.76,618,869.85,618,864v-33.96c0.2,0.13,0.42,0.26,0.62,0.39c0.41,0.26,0.82,0.53,1.25,0.79
		c0.34,0.21,0.69,0.42,1.04,0.63c0.43,0.26,0.87,0.52,1.31,0.77c0.37,0.21,0.74,0.42,1.11,0.63c0.46,0.26,0.92,0.51,1.39,0.76
		c0.39,0.21,0.78,0.42,1.18,0.63c0.49,0.25,0.99,0.51,1.49,0.76c0.41,0.21,0.82,0.41,1.24,0.62c0.53,0.26,1.07,0.51,1.62,0.77
		c0.42,0.2,0.84,0.4,1.27,0.59c0.59,0.27,1.2,0.53,1.8,0.8c0.42,0.18,0.82,0.36,1.25,0.54c0.69,0.29,1.41,0.59,2.13,0.88
		c0.37,0.15,0.72,0.3,1.09,0.45c1.1,0.44,2.23,0.88,3.4,1.31C669.56,851.94,709.95,858,752,858s82.44-6.06,110.81-16.63
		c1.16-0.43,2.29-0.87,3.4-1.31c0.37-0.15,0.72-0.3,1.09-0.45c0.72-0.29,1.44-0.59,2.14-0.88c0.42-0.18,0.82-0.36,1.23-0.54
		c0.62-0.27,1.23-0.54,1.83-0.81c0.42-0.19,0.83-0.39,1.24-0.58c0.56-0.26,1.11-0.52,1.65-0.78c0.41-0.2,0.81-0.4,1.2-0.6
		c0.52-0.26,1.03-0.52,1.53-0.78c0.39-0.2,0.77-0.41,1.15-0.61c0.48-0.26,0.96-0.52,1.43-0.78c0.37-0.21,0.73-0.41,1.08-0.62
		c0.45-0.26,0.9-0.52,1.34-0.79c0.34-0.21,0.69-0.41,1.02-0.62c0.43-0.26,0.84-0.53,1.26-0.8c0.2-0.13,0.42-0.26,0.62-0.39V864z" fill="#ffffff" class="color000000 svgShape"></path>
  </g>
</svg>
