<svg width="50" height="50" viewBox="0 0 50 50" fill="none" xmlns="http://www.w3.org/2000/svg">
<mask id="path-1-outside-1_1254_59" maskUnits="userSpaceOnUse" x="2" y="4" width="46" height="44" fill="black">
<rect fill="white" x="2" y="4" width="46" height="44"/>
<path d="M40 40L23.5 28.9L27.1 22.6L45 31.4L40 40ZM21.7 25.8L20.4 6H30.3L29.1 25.8H21.7ZM20.4 45.6L21.7 25.8H29.1L30.3 45.6H20.4ZM23.5 28.9L5.7 20.2L10.6 11.6L27.1 22.6L23.5 28.9ZM27.1 28.9L23.5 22.6L40 11.6L45 20.2L27.1 28.9ZM10.6 40L5.7 31.4L23.5 22.6L27.1 28.9L10.6 40Z"/>
</mask>
<path d="M40 40L38.8836 41.6594L40.6556 42.8515L41.729 41.0052L40 40ZM23.5 28.9L21.7635 27.9077L20.8412 29.5218L22.3836 30.5594L23.5 28.9ZM27.1 22.6L27.9824 20.8052L26.2959 19.9761L25.3635 21.6077L27.1 22.6ZM45 31.4L46.729 32.4052L47.8069 30.5513L45.8824 29.6052L45 31.4ZM21.7 25.8L19.7043 25.931L19.827 27.8H21.7V25.8ZM20.4 6V4H18.2644L18.4043 6.13103L20.4 6ZM30.3 6L32.2963 6.12099L32.4249 4H30.3V6ZM29.1 25.8V27.8H30.9825L31.0963 25.921L29.1 25.8ZM20.4 45.6L18.4043 45.469L18.2644 47.6H20.4V45.6ZM21.7 25.8V23.8H19.827L19.7043 25.669L21.7 25.8ZM29.1 25.8L31.0963 25.679L30.9825 23.8H29.1V25.8ZM30.3 45.6V47.6H32.4249L32.2963 45.479L30.3 45.6ZM23.5 28.9L22.6218 30.6969L24.3063 31.5202L25.2365 29.8923L23.5 28.9ZM5.7 20.2L3.96227 19.2099L2.90745 21.0612L4.82176 21.9969L5.7 20.2ZM10.6 11.6L11.7094 9.93589L9.92434 8.74585L8.86227 10.6099L10.6 11.6ZM27.1 22.6L28.8365 23.5923L29.7627 21.9714L28.2094 20.9359L27.1 22.6ZM27.1 28.9L25.3635 29.8923L26.2917 31.5166L27.9743 30.6988L27.1 28.9ZM23.5 22.6L22.3906 20.9359L20.8373 21.9714L21.7635 23.5923L23.5 22.6ZM40 11.6L41.729 10.5948L40.6601 8.75623L38.8906 9.93589L40 11.6ZM45 20.2L45.8743 21.9988L47.8118 21.0571L46.729 19.1948L45 20.2ZM10.6 40L8.86227 40.9901L9.92881 42.862L11.7164 41.6594L10.6 40ZM5.7 31.4L4.81364 29.6071L2.91222 30.5472L3.96227 32.3901L5.7 31.4ZM23.5 22.6L25.2365 21.6077L24.302 19.9724L22.6136 20.8071L23.5 22.6ZM27.1 28.9L28.2164 30.5594L29.7588 29.5218L28.8365 27.9077L27.1 28.9ZM41.1164 38.3406L24.6164 27.2406L22.3836 30.5594L38.8836 41.6594L41.1164 38.3406ZM25.2365 29.8923L28.8365 23.5923L25.3635 21.6077L21.7635 27.9077L25.2365 29.8923ZM26.2176 24.3948L44.1176 33.1948L45.8824 29.6052L27.9824 20.8052L26.2176 24.3948ZM43.271 30.3948L38.271 38.9948L41.729 41.0052L46.729 32.4052L43.271 30.3948ZM23.6957 25.669L22.3957 5.86896L18.4043 6.13103L19.7043 25.931L23.6957 25.669ZM20.4 8H30.3V4H20.4V8ZM28.3037 5.87901L27.1037 25.679L31.0963 25.921L32.2963 6.12099L28.3037 5.87901ZM29.1 23.8H21.7V27.8H29.1V23.8ZM22.3957 45.731L23.6957 25.931L19.7043 25.669L18.4043 45.469L22.3957 45.731ZM21.7 27.8H29.1V23.8H21.7V27.8ZM27.1037 25.921L28.3037 45.721L32.2963 45.479L31.0963 25.679L27.1037 25.921ZM30.3 43.6H20.4V47.6H30.3V43.6ZM24.3782 27.1031L6.57824 18.4031L4.82176 21.9969L22.6218 30.6969L24.3782 27.1031ZM7.43773 21.1901L12.3377 12.5901L8.86227 10.6099L3.96227 19.2099L7.43773 21.1901ZM9.4906 13.2641L25.9906 24.2641L28.2094 20.9359L11.7094 9.93589L9.4906 13.2641ZM25.3635 21.6077L21.7635 27.9077L25.2365 29.8923L28.8365 23.5923L25.3635 21.6077ZM28.8365 27.9077L25.2365 21.6077L21.7635 23.5923L25.3635 29.8923L28.8365 27.9077ZM24.6094 24.2641L41.1094 13.2641L38.8906 9.93589L22.3906 20.9359L24.6094 24.2641ZM38.271 12.6052L43.271 21.2052L46.729 19.1948L41.729 10.5948L38.271 12.6052ZM44.1257 18.4012L26.2257 27.1012L27.9743 30.6988L45.8743 21.9988L44.1257 18.4012ZM12.3377 39.0099L7.43773 30.4099L3.96227 32.3901L8.86227 40.9901L12.3377 39.0099ZM6.58636 33.1929L24.3864 24.3929L22.6136 20.8071L4.81364 29.6071L6.58636 33.1929ZM21.7635 23.5923L25.3635 29.8923L28.8365 27.9077L25.2365 21.6077L21.7635 23.5923ZM25.9836 27.2406L9.48365 38.3406L11.7164 41.6594L28.2164 30.5594L25.9836 27.2406Z" fill="url(#paint0_linear_1254_59)" mask="url(#path-1-outside-1_1254_59)"/>
<defs>
<linearGradient id="paint0_linear_1254_59" x1="48.4186" y1="23.7934" x2="3.52636" y2="27.0619" gradientUnits="userSpaceOnUse">
<stop stop-color="#73ED7C"/>
<stop offset="1" stop-color="#019297"/>
</linearGradient>
</defs>
</svg>
