<svg xmlns="http://www.w3.org/2000/svg" enable-background="new 0 0 64 64" viewBox="0 0 64 64" id="Builder">
  <path fill="#ffffff" stroke="#595959" stroke-linecap="round" stroke-linejoin="round" stroke-miterlimit="10" d="M49.2916412,42.7273636l-8.8334999-4.035553L33.7497177,40.91716c-1.1351738,0.376503-2.3642616,0.376503-3.4994354,0l-6.7084236-2.2253494l-8.8334999,4.035553C11.5323372,44.1782799,9.5,47.3146515,9.5,50.7648048v8.7351646h45v-8.7351646C54.5,47.3146515,52.4676628,44.1782799,49.2916412,42.7273636z" class="colorfffef8 svgShape colorStroke58595b svgStroke"></path>
  <path fill="#ffffff" stroke="#595959" stroke-linecap="round" stroke-linejoin="round" stroke-miterlimit="10" d="M40.4581604 38.6917992l-6.7084694 2.2253647c-.2525635.0838432-.5109215.142128-.7707138.1884727l5.1109123 4.8701897L40.4581604 38.6917992zM31.0286655 41.1075478c-.2624187-.0465813-.523283-.1058235-.7783585-.1903839l-6.7084656-2.2253647 2.3780613 7.2840271L31.0286655 41.1075478z" class="colorfffef8 svgShape colorStroke58595b svgStroke"></path>
  <path fill="#959595" d="M30.6172161,46.3441734h2.775362l2.5473938-2.4169426l-2.962429-2.8211174c-0.6448479,0.115139-1.3032513,0.1160927-1.9481602,0.0016708l-2.9596214,2.8194466L30.6172161,46.3441734z" class="colore0604b svgShape"></path>
  <path fill="none" stroke="#595959" stroke-linejoin="round" stroke-miterlimit="10" d="M30.6172161,46.3441734h2.775362l2.5473938-2.4169426l-2.962429-2.8211174c-0.6448479,0.115139-1.3032513,0.1160927-1.9481602,0.0016708l-2.9596214,2.8194466L30.6172161,46.3441734z" class="colorStroke58595b svgStroke"></path>
  <polygon fill="#959595" points="33.383 46.344 30.617 46.344 28.125 55.726 29.058 59.5 34.942 59.5 35.876 55.726" class="colore0604b svgShape"></polygon>
  <polygon fill="none" stroke="#595959" stroke-linejoin="round" stroke-miterlimit="10" points="33.383 46.344 30.617 46.344 28.125 55.726 29.058 59.5 34.942 59.5 35.876 55.726" class="colorStroke58595b svgStroke"></polygon>
  <path fill="#dddddd" stroke="#595959" stroke-linecap="round" stroke-linejoin="round" stroke-miterlimit="10" d="M32.259552,36.2648239c-0.0500946,0-0.0988159-0.0069275-0.148735-0.0078812C32.0737991,36.2593307,32.0374374,36.2648239,32,36.2648239l0.0001183-0.013855c-1.3431969-0.0470581-2.6153412-0.4545784-3.7015553-1.1475563c-0.0435276-0.02771-0.0859795-0.0561371-0.1288509-0.0845642c-0.2125607-0.142128-0.4168243-0.2947693-0.6130848-0.4584007c-0.0493793-0.0408478-0.1001911-0.0793076-0.1484947-0.1213493c-0.2227116-0.1958771-0.4371243-0.4015503-0.6345196-0.6241798h-0.0025082l-3.2292633,4.8768806l6.7084656,2.2253647c1.1351757,0.3764648,2.3642101,0.3764648,3.4993839,0l6.7084694-2.2253647l-3.1285362-4.7247162c-1.1163673,1.1793251-2.6179733,1.9594917-4.2703972,2.1966972C32.8039131,36.224453,32.540062,36.2648239,32.259552,36.2648239z" class="colorffeabb svgShape colorStroke58595b svgStroke"></path>
  <path fill="#808080" stroke="#595959" stroke-linejoin="round" stroke-miterlimit="10" d="M43.0850716,16.5595646c0,0,0.6765862-11.2346983-11.0298004-11.3071756V5.2491574c-0.0190392,0-0.036232,0.0013852-0.0552139,0.001616c-0.0189819-0.0002308-0.036232-0.001616-0.0552711-0.001616V5.252389C20.2384014,5.3248663,20.9149876,16.5595646,20.9149876,16.5595646l-0.9742928,3.9712448l4.1406403,2.7800064h15.8373318l4.1406364-2.7800064L43.0850716,16.5595646z" class="colorffda00 svgShape colorStroke58595b svgStroke"></path>
  <path fill="#dddddd" stroke="#595959" stroke-linecap="round" stroke-linejoin="round" stroke-miterlimit="10" d="M43.0702782,21.1948891l-3.1515846,2.1159592h-15.837389l-2.8860588-1.9377575c-0.0230484,1.1260586-0.1826477,2.2850819-0.1819916,2.2865143c-0.443573,0.6473522-0.5260906,1.6417923-0.1371498,2.6061325c0.5076389,1.2586346,1.6357689,2.0144367,2.6253738,1.8266792l2.1629333,4.0429668c1.1455631,2.4384422,3.6033955,4.0150185,6.3357067,4.1110458L32,36.2648239c0.0438271,0,0.0860977-0.0083618,0.1298065-0.0093155c0.043705,0.0009537,0.0859184,0.0093155,0.1297455,0.0093155l-0.0001183-0.0183945c2.7323112-0.0960274,5.1901436-1.6726036,6.3357086-4.1110458l2.1629333-4.0429668c0.9896049,0.1877575,2.117733-0.5680447,2.6253738-1.8266792c0.3889389-0.9643402,0.3064232-1.9587803-0.1371498-2.6061325C43.2469559,23.6581726,43.0948792,22.3668118,43.0702782,21.1948891z" class="colorffeabb svgShape colorStroke58595b svgStroke"></path>
  <line x1="40.714" x2="46.305" y1="50.367" y2="50.367" fill="none" stroke="#595959" stroke-linecap="square" stroke-linejoin="round" stroke-miterlimit="10" class="colorStroke58595b svgStroke"></line>
  <path fill="#808080" d="M28.882906,4.8068609l0.7037506,6.2396688h5.1218128l0.4086151-6.2396688C33.0650139,4.3978124,30.9349785,4.3978124,28.882906,4.8068609z" class="colorffda00 svgShape"></path>
  <path fill="none" stroke="#595959" stroke-linecap="round" stroke-linejoin="round" stroke-miterlimit="10" d="M29.5866833,11.0465164l-0.703764-6.2397671l0.0000019-0.0000005c2.0520401-0.4089985,4.1821156-0.4089985,6.2341557,0l0.0000038,0.0000005l-0.4086266,6.2397671" class="colorStroke58595b svgStroke"></path>
</svg>
