<svg width="30" height="31" viewBox="0 0 30 31" fill="none" xmlns="http://www.w3.org/2000/svg">
<g clip-path="url(#clip0_76_8798)">
<path d="M16.875 30.3274H13.125C12.25 30.3274 11.25 29.5774 11.25 28.0774V25.4524C11.25 24.2024 10.625 23.0774 9.625 22.2024C7.375 20.4524 6.25 17.9524 6.25 15.2024C6.375 10.4524 10.25 6.70239 14.875 6.57739C17.25 6.57739 19.5 7.45239 21.125 9.07739C22.75 10.7024 23.75 12.9524 23.75 15.3274C23.75 17.9524 22.625 20.4524 20.5 22.0774C19.375 22.9524 18.75 24.3274 18.75 25.5774V28.4524C18.75 29.4524 17.875 30.3274 16.875 30.3274ZM15 7.82739C11 7.82739 7.625 11.2024 7.5 15.2024C7.5 17.5774 8.5 19.8274 10.375 21.2024C11.75 22.3274 12.5 23.8274 12.5 25.4524V28.0774C12.5 28.3274 12.5 29.0774 13.125 29.0774H16.875C17.25 29.0774 17.5 28.8274 17.5 28.4524V25.5774C17.5 23.9524 18.375 22.2024 19.75 21.0774C21.5 19.7024 22.5 17.5774 22.5 15.3274C22.5 13.3274 21.75 11.4524 20.25 9.95239C18.875 8.57739 17 7.82739 15 7.82739Z" fill="white"/>
<path d="M18.125 26.5774H11.875C11.5 26.5774 11.25 26.3274 11.25 25.9524C11.25 25.5774 11.5 25.3274 11.875 25.3274H18.125C18.5 25.3274 18.75 25.5774 18.75 25.9524C18.75 26.3274 18.5 26.5774 18.125 26.5774Z" fill="white"/>
<path d="M15 4.07739C14.625 4.07739 14.375 3.82739 14.375 3.45239V0.952393C14.375 0.577393 14.625 0.327393 15 0.327393C15.375 0.327393 15.625 0.577393 15.625 0.952393V3.45239C15.625 3.82739 15.375 4.07739 15 4.07739Z" fill="white"/>
<path d="M23.375 7.57739C23.25 7.57739 23 7.57739 22.875 7.45239C22.625 7.20239 22.625 6.82739 22.875 6.57739L24.625 4.82739C24.875 4.57739 25.25 4.57739 25.5 4.82739C25.75 5.07739 25.75 5.45239 25.5 5.70239L23.75 7.45239C23.75 7.45239 23.5 7.57739 23.375 7.57739Z" fill="white"/>
<path d="M29.375 15.9524H26.875C26.5 15.9524 26.25 15.7024 26.25 15.3274C26.25 14.9524 26.5 14.7024 26.875 14.7024H29.375C29.75 14.7024 30 14.9524 30 15.3274C30 15.7024 29.75 15.9524 29.375 15.9524Z" fill="white"/>
<path d="M25.125 26.0774C25 26.0774 24.75 26.0774 24.625 25.9524L22.875 24.2024C22.625 23.9524 22.625 23.5774 22.875 23.3274C23.125 23.0774 23.5 23.0774 23.75 23.3274L25.5 25.0774C25.75 25.3274 25.75 25.7024 25.5 25.9524C25.5 26.0774 25.375 26.0774 25.125 26.0774Z" fill="white"/>
<path d="M4.875 26.0774C4.75 26.0774 4.5 26.0774 4.375 25.9524C4.125 25.7024 4.125 25.3274 4.375 25.0774L6.125 23.3274C6.375 23.0774 6.75 23.0774 7 23.3274C7.25 23.5774 7.25 23.9524 7 24.2024L5.25 25.9524C5.125 26.0774 5 26.0774 4.875 26.0774Z" fill="white"/>
<path d="M3.125 15.9524H0.625C0.25 15.9524 0 15.7024 0 15.3274C0 14.9524 0.25 14.7024 0.625 14.7024H3.125C3.5 14.7024 3.75 14.9524 3.75 15.3274C3.75 15.7024 3.5 15.9524 3.125 15.9524Z" fill="white"/>
<path d="M6.625 7.57739C6.5 7.57739 6.25 7.57739 6.125 7.45239L4.375 5.57739C4.125 5.32739 4.125 4.95239 4.375 4.70239C4.625 4.45239 5 4.45239 5.25 4.70239L7 6.45239C7.25 6.70239 7.25 7.07739 7 7.32739C6.875 7.45239 6.75 7.57739 6.625 7.57739Z" fill="white"/>
<path d="M20 15.9524C19.625 15.9524 19.375 15.7024 19.375 15.3274C19.375 12.9524 17.375 10.9524 15 10.9524C14.625 10.9524 14.375 10.7024 14.375 10.3274C14.375 9.95239 14.625 9.70239 15 9.70239C18.125 9.70239 20.625 12.2024 20.625 15.3274C20.625 15.7024 20.375 15.9524 20 15.9524Z" fill="white"/>
</g>
<defs>
<clipPath id="clip0_76_8798">
<rect width="30" height="30" fill="white" transform="translate(0 0.327393)"/>
</clipPath>
</defs>
</svg>
