<svg width="155" height="61" viewBox="0 0 155 61" fill="none" xmlns="http://www.w3.org/2000/svg">
<g clip-path="url(#clip0_107_1123)">
<path fill-rule="evenodd" clip-rule="evenodd" d="M38.2185 23.4004H20.2959V28.7188H33.0075C32.3793 36.1768 26.1741 39.3574 20.3175 39.3574C12.8241 39.3574 6.28528 33.4618 6.28528 25.198C6.28528 17.1478 12.5187 10.9486 20.3337 10.9486C26.3637 10.9486 29.9169 14.7922 29.9169 14.7922L33.6399 10.936C33.6399 10.936 28.8609 5.61523 20.1435 5.61523C9.04348 5.61463 0.455078 14.9836 0.455078 25.1032C0.455078 35.0188 8.53288 44.6884 20.4267 44.6884C30.8865 44.6878 38.5431 37.5226 38.5431 26.9266C38.5431 24.691 38.2185 23.3992 38.2185 23.3992V23.4004Z" fill="#176BEF"/>
<path fill-rule="evenodd" clip-rule="evenodd" d="M52.9742 24.4814C56.591 24.4814 60.0182 27.4052 60.0182 32.1164C60.0182 36.7286 56.6054 39.7352 52.958 39.7352C48.95 39.7352 45.7874 36.5258 45.7874 32.0804C45.7874 27.7298 48.9098 24.4814 52.9742 24.4814ZM52.901 19.5488C45.5468 19.5488 40.2764 25.298 40.2764 32.0042C40.2764 38.8082 45.389 44.6648 52.9874 44.6648C59.8664 44.6648 65.5028 39.407 65.5028 32.15C65.5028 23.8322 58.9466 19.5488 52.901 19.5488Z" fill="#FF3E30"/>
<path fill-rule="evenodd" clip-rule="evenodd" d="M80.4306 24.4814C84.048 24.4814 87.4752 27.4052 87.4752 32.1164C87.4752 36.7286 84.0618 39.7352 80.4144 39.7352C76.407 39.7352 73.245 36.5258 73.245 32.0804C73.245 27.7298 76.3674 24.4814 80.4306 24.4814ZM80.358 19.5488C73.0044 19.5488 67.7334 25.298 67.7334 32.0042C67.7334 38.8082 72.8454 44.6648 80.4444 44.6648C87.3234 44.6648 92.9592 39.407 92.9592 32.15C92.9592 23.8322 86.4036 19.5488 80.358 19.5488Z" fill="#F7B529"/>
<path fill-rule="evenodd" clip-rule="evenodd" d="M107.778 24.4855C111.087 24.4855 114.486 27.3109 114.486 32.1367C114.486 37.0423 111.094 39.7459 107.705 39.7459C104.106 39.7459 100.758 36.8239 100.758 32.1835C100.758 27.3619 104.235 24.4855 107.778 24.4855ZM107.289 19.5625C100.539 19.5625 95.2324 25.4749 95.2324 32.1109C95.2324 39.6691 101.384 44.6821 107.172 44.6821C110.752 44.6821 112.655 43.2613 114.061 41.6311V44.1067C114.061 48.4399 111.429 51.0349 107.459 51.0349C103.623 51.0343 101.699 48.1825 101.031 46.5637L96.2038 48.5815C97.9162 52.2013 101.363 55.9771 107.499 55.9771C114.21 55.9771 119.325 51.7495 119.325 42.8839V20.3173H114.061V22.4449C112.442 20.7001 110.228 19.5625 107.289 19.5625Z" fill="#176BEF"/>
<path fill-rule="evenodd" clip-rule="evenodd" d="M142.957 24.3619C145.251 24.3619 146.902 25.5811 147.604 27.0439L136.359 31.7443C135.874 28.1053 139.321 24.3619 142.957 24.3619ZM142.737 19.5312C136.369 19.5312 131.023 24.5977 131.023 32.0731C131.023 39.9835 136.983 44.6749 143.349 44.6749C148.662 44.6749 151.923 41.7679 153.87 39.1633L149.528 36.2749C148.402 38.0233 146.518 39.7315 143.376 39.7315C139.846 39.7315 138.222 37.7983 137.216 35.9263L154.056 28.9387L153.181 26.8909C151.554 22.8811 147.759 19.5319 142.738 19.5319L142.737 19.5312Z" fill="#FF3E30"/>
<path fill-rule="evenodd" clip-rule="evenodd" d="M122.995 43.9299H128.527V6.91406H122.995V43.9299Z" fill="#179C52"/>
</g>
<defs>
<clipPath id="clip0_107_1123">
<rect width="153.6" height="60" fill="white" transform="translate(0.455078 0.795898)"/>
</clipPath>
</defs>
</svg>
