<svg width="36" height="36" viewBox="0 0 36 36" fill="none" xmlns="http://www.w3.org/2000/svg">
<g clip-path="url(#clip0_154_278)">
<path d="M4.43262 15.7305H6.93262C7.26414 15.7305 7.58208 15.8622 7.8165 16.0966C8.05092 16.331 8.18262 16.6489 8.18262 16.9805V23.2305C8.18262 23.562 8.05092 23.8799 7.8165 24.1144C7.58208 24.3488 7.26414 24.4805 6.93262 24.4805H4.43262C3.76958 24.4805 3.13369 24.2171 2.66485 23.7482C2.19601 23.2794 1.93262 22.6435 1.93262 21.9805V18.2305C1.93262 17.5674 2.19601 16.9315 2.66485 16.4627C3.13369 15.9939 3.76958 15.7305 4.43262 15.7305V15.7305Z" stroke="white" stroke-width="1.5" stroke-linecap="round" stroke-linejoin="round"/>
<path d="M31.9326 24.4805H29.4326C29.1011 24.4805 28.7832 24.3488 28.5487 24.1144C28.3143 23.8799 28.1826 23.562 28.1826 23.2305V16.9805C28.1826 16.6489 28.3143 16.331 28.5487 16.0966C28.7832 15.8622 29.1011 15.7305 29.4326 15.7305H31.9326C32.5957 15.7305 33.2315 15.9939 33.7004 16.4627C34.1692 16.9315 34.4326 17.5674 34.4326 18.2305V21.9805C34.4326 22.6435 34.1692 23.2794 33.7004 23.7482C33.2315 24.2171 32.5957 24.4805 31.9326 24.4805V24.4805Z" stroke="white" stroke-width="1.5" stroke-linecap="round" stroke-linejoin="round"/>
<path d="M24.4326 31.3555C25.7587 31.3555 27.0305 30.8287 27.9682 29.891C28.9058 28.9533 29.4326 27.6816 29.4326 26.3555V24.4805" stroke="white" stroke-width="1.5" stroke-linecap="round" stroke-linejoin="round"/>
<path d="M21.3076 28.2305C22.1364 28.2305 22.9313 28.5597 23.5173 29.1458C24.1034 29.7318 24.4326 30.5267 24.4326 31.3555C24.4326 32.1843 24.1034 32.9791 23.5173 33.5652C22.9313 34.1512 22.1364 34.4805 21.3076 34.4805H17.5576C16.7288 34.4805 15.934 34.1512 15.3479 33.5652C14.7619 32.9791 14.4326 32.1843 14.4326 31.3555C14.4326 30.5267 14.7619 29.7318 15.3479 29.1458C15.934 28.5597 16.7288 28.2305 17.5576 28.2305H21.3076Z" stroke="white" stroke-width="1.5" stroke-linecap="round" stroke-linejoin="round"/>
<path d="M6.93262 15.7305V13.2305C6.93262 10.2468 8.11788 7.3853 10.2277 5.27552C12.3374 3.16573 15.1989 1.98047 18.1826 1.98047C21.1663 1.98047 24.0278 3.16573 26.1376 5.27552C28.2474 7.3853 29.4326 10.2468 29.4326 13.2305V15.7305" stroke="white" stroke-width="1.5" stroke-linecap="round" stroke-linejoin="round"/>
<path d="M14.4326 10.7305V14.4805" stroke="white" stroke-width="1.5" stroke-linecap="round" stroke-linejoin="round"/>
<path d="M21.9326 10.7305V14.4805" stroke="white" stroke-width="1.5" stroke-linecap="round" stroke-linejoin="round"/>
<path d="M14.4326 19.4805C14.4326 22.8055 21.9326 22.8055 21.9326 19.4805" stroke="white" stroke-width="1.5" stroke-linecap="round" stroke-linejoin="round"/>
</g>
<defs>
<clipPath id="clip0_154_278">
<rect width="35" height="35" fill="white" transform="translate(0.682617 0.730469)"/>
</clipPath>
</defs>
</svg>
