<svg width="36" height="36" viewBox="0 0 36 36" fill="none" xmlns="http://www.w3.org/2000/svg">
<g clip-path="url(#clip0_154_261)">
<path d="M13.8076 21.3555H3.18262C2.49226 21.3555 1.93262 21.9151 1.93262 22.6055V33.2305C1.93262 33.9208 2.49226 34.4805 3.18262 34.4805H13.8076C14.498 34.4805 15.0576 33.9208 15.0576 33.2305V22.6055C15.0576 21.9151 14.498 21.3555 13.8076 21.3555Z" stroke="white" stroke-width="1.5" stroke-linecap="round" stroke-linejoin="round"/>
<path d="M33.1826 21.3555H22.5576C21.8673 21.3555 21.3076 21.9151 21.3076 22.6055V33.2305C21.3076 33.9208 21.8673 34.4805 22.5576 34.4805H33.1826C33.873 34.4805 34.4326 33.9208 34.4326 33.2305V22.6055C34.4326 21.9151 33.873 21.3555 33.1826 21.3555Z" stroke="white" stroke-width="1.5" stroke-linecap="round" stroke-linejoin="round"/>
<path d="M23.5078 1.98047H12.8828C12.1925 1.98047 11.6328 2.54011 11.6328 3.23047V13.8555C11.6328 14.5458 12.1925 15.1055 12.8828 15.1055H23.5078C24.1982 15.1055 24.7578 14.5458 24.7578 13.8555V3.23047C24.7578 2.54011 24.1982 1.98047 23.5078 1.98047Z" stroke="white" stroke-width="1.5" stroke-linecap="round" stroke-linejoin="round"/>
</g>
<defs>
<clipPath id="clip0_154_261">
<rect width="35" height="35" fill="white" transform="translate(0.682617 0.730469)"/>
</clipPath>
</defs>
</svg>
