<svg width="36" height="36" viewBox="0 0 36 36" fill="none" xmlns="http://www.w3.org/2000/svg">
<g clip-path="url(#clip0_152_118)">
<path d="M8.63086 15.0378C12.4278 15.0378 15.5059 11.9597 15.5059 8.16278C15.5059 4.36582 12.4278 1.28778 8.63086 1.28778C4.8339 1.28778 1.75586 4.36582 1.75586 8.16278C1.75586 11.9597 4.8339 15.0378 8.63086 15.0378Z" stroke="white" stroke-width="1.5" stroke-linecap="round" stroke-linejoin="round"/>
<path d="M27.3809 15.0378C31.1778 15.0378 34.2559 11.9597 34.2559 8.16278C34.2559 4.36582 31.1778 1.28778 27.3809 1.28778C23.5839 1.28778 20.5059 4.36582 20.5059 8.16278C20.5059 11.9597 23.5839 15.0378 27.3809 15.0378Z" stroke="white" stroke-width="1.5" stroke-linecap="round" stroke-linejoin="round"/>
<path d="M8.63086 33.7878C12.4278 33.7878 15.5059 30.7097 15.5059 26.9128C15.5059 23.1158 12.4278 20.0378 8.63086 20.0378C4.8339 20.0378 1.75586 23.1158 1.75586 26.9128C1.75586 30.7097 4.8339 33.7878 8.63086 33.7878Z" stroke="white" stroke-width="1.5" stroke-linecap="round" stroke-linejoin="round"/>
<path d="M27.3809 33.7878C31.1778 33.7878 34.2559 30.7097 34.2559 26.9128C34.2559 23.1158 31.1778 20.0378 27.3809 20.0378C23.5839 20.0378 20.5059 23.1158 20.5059 26.9128C20.5059 30.7097 23.5839 33.7878 27.3809 33.7878Z" stroke="white" stroke-width="1.5" stroke-linecap="round" stroke-linejoin="round"/>
</g>
<defs>
<clipPath id="clip0_152_118">
<rect width="35" height="35" fill="white" transform="translate(0.505859 0.0377808)"/>
</clipPath>
</defs>
</svg>
