<svg width="36" height="36" viewBox="0 0 36 36" fill="none" xmlns="http://www.w3.org/2000/svg">
<g clip-path="url(#clip0_152_125)">
<path d="M18.0059 25.0878V27.6128" stroke="white" stroke-width="1.5" stroke-linecap="round" stroke-linejoin="round"/>
<path d="M18.0059 12.5627V14.9127" stroke="white" stroke-width="1.5" stroke-linecap="round" stroke-linejoin="round"/>
<path d="M18.0059 33.7628C26.7559 33.7628 33.0059 30.6628 33.0059 23.7628C33.0059 16.2628 29.2559 11.2628 21.7559 7.51277L24.7059 3.71277C24.8557 3.46345 24.937 3.17893 24.9415 2.88807C24.946 2.5972 24.8735 2.31032 24.7313 2.05651C24.5892 1.8027 24.3825 1.59098 24.1321 1.4428C23.8818 1.29463 23.5967 1.21527 23.3059 1.21277H12.7059C12.415 1.21527 12.1299 1.29463 11.8796 1.4428C11.6292 1.59098 11.4225 1.8027 11.2804 2.05651C11.1383 2.31032 11.0658 2.5972 11.0702 2.88807C11.0747 3.17893 11.156 3.46345 11.3059 3.71277L14.2559 7.53777C6.75586 11.3128 3.00586 16.3128 3.00586 23.8128C3.00586 30.6628 9.25586 33.7628 18.0059 33.7628Z" stroke="white" stroke-width="1.5" stroke-linecap="round" stroke-linejoin="round"/>
<path d="M15.5063 23.9378C15.8113 24.2999 16.1952 24.5873 16.6286 24.778C17.0619 24.9686 17.5332 25.0575 18.0063 25.0378C18.7293 25.0871 19.4432 24.8541 19.998 24.3879C20.5528 23.9217 20.9053 23.2585 20.9812 22.5378C20.9053 21.8171 20.5528 21.1539 19.998 20.6877C19.4432 20.2215 18.7293 19.9885 18.0063 20.0378C17.2832 20.0871 16.5693 19.8541 16.0145 19.3879C15.4597 18.9217 15.1072 18.2585 15.0312 17.5378C15.1011 16.8146 15.4519 16.1476 16.0081 15.6801C16.5644 15.2127 17.2818 14.982 18.0063 15.0378C18.471 15.0094 18.9362 15.0843 19.3685 15.2572C19.8008 15.4301 20.1893 15.6967 20.5063 16.0378" stroke="white" stroke-width="1.5" stroke-linecap="round" stroke-linejoin="round"/>
</g>
<defs>
<clipPath id="clip0_152_125">
<rect width="35" height="35" fill="white" transform="translate(0.505859 0.0377808)"/>
</clipPath>
</defs>
</svg>
