<svg width="36" height="36" viewBox="0 0 36 36" fill="none" xmlns="http://www.w3.org/2000/svg">
<g clip-path="url(#clip0_152_140)">
<path d="M18.0059 13.7878C26.9805 13.7878 34.2559 10.9896 34.2559 7.53784C34.2559 4.08606 26.9805 1.28784 18.0059 1.28784C9.03123 1.28784 1.75586 4.08606 1.75586 7.53784C1.75586 10.9896 9.03123 13.7878 18.0059 13.7878Z" stroke="white" stroke-width="1.5" stroke-linecap="round" stroke-linejoin="round"/>
<path d="M1.75586 7.53784V27.5378C1.75586 30.9878 9.03086 33.7878 18.0059 33.7878C26.9809 33.7878 34.2559 30.9878 34.2559 27.5378V7.53784" stroke="white" stroke-width="1.5" stroke-linecap="round" stroke-linejoin="round"/>
<path d="M34.2559 17.5378C34.2559 20.9878 26.9809 23.7878 18.0059 23.7878C9.03086 23.7878 1.75586 20.9878 1.75586 17.5378" stroke="white" stroke-width="1.5" stroke-linecap="round" stroke-linejoin="round"/>
</g>
<defs>
<clipPath id="clip0_152_140">
<rect width="35" height="35" fill="white" transform="translate(0.505859 0.0378418)"/>
</clipPath>
</defs>
</svg>
