<svg width="36" height="36" viewBox="0 0 36 36" fill="none" xmlns="http://www.w3.org/2000/svg">
<g clip-path="url(#clip0_154_248)">
<path d="M13.7575 6.35547L14.8325 3.58047C15.0138 3.11063 15.3328 2.7065 15.7477 2.421C16.1625 2.1355 16.6539 1.98196 17.1575 1.98047H19.2075C19.7111 1.98196 20.2026 2.1355 20.6174 2.421C21.0323 2.7065 21.3512 3.11063 21.5325 3.58047L22.6075 6.35547L26.2575 8.45547L29.2075 8.00547C29.6987 7.93879 30.1987 8.01966 30.6438 8.23778C31.089 8.4559 31.4592 8.80143 31.7075 9.23047L32.7075 10.9805C32.9638 11.4163 33.0818 11.9197 33.0461 12.424C33.0104 12.9284 32.8226 13.41 32.5075 13.8055L30.6825 16.1305V20.3305L32.5575 22.6555C32.8726 23.0509 33.0604 23.5326 33.0961 24.0369C33.1318 24.5413 33.0138 25.0446 32.7575 25.4805L31.7575 27.2305C31.5092 27.6595 31.139 28.005 30.6938 28.2232C30.2487 28.4413 29.7487 28.5221 29.2575 28.4555L26.3075 28.0055L22.6575 30.1055L21.5825 32.8805C21.4012 33.3503 21.0823 33.7544 20.6674 34.0399C20.2526 34.3254 19.7611 34.479 19.2575 34.4805H17.1575C16.6539 34.479 16.1625 34.3254 15.7477 34.0399C15.3328 33.7544 15.0138 33.3503 14.8325 32.8805L13.7575 30.1055L10.1075 28.0055L7.15754 28.4555C6.66633 28.5221 6.16639 28.4413 5.72124 28.2232C5.2761 28.005 4.90585 27.6595 4.65754 27.2305L3.65754 25.4805C3.40129 25.0446 3.28323 24.5413 3.31894 24.0369C3.35464 23.5326 3.54244 23.0509 3.85754 22.6555L5.68254 20.3305V16.1305L3.80754 13.8055C3.49244 13.41 3.30464 12.9284 3.26894 12.424C3.23323 11.9197 3.35129 11.4163 3.60754 10.9805L4.60754 9.23047C4.85585 8.80143 5.2261 8.4559 5.67124 8.23778C6.11639 8.01966 6.61633 7.93879 7.10754 8.00547L10.0575 8.45547L13.7575 6.35547Z" stroke="white" stroke-width="1.5" stroke-linecap="round" stroke-linejoin="round"/>
<path d="M18.1826 25.7305C22.3248 25.7305 25.6826 22.3726 25.6826 18.2305C25.6826 14.0883 22.3248 10.7305 18.1826 10.7305C14.0405 10.7305 10.6826 14.0883 10.6826 18.2305C10.6826 22.3726 14.0405 25.7305 18.1826 25.7305Z" stroke="white" stroke-width="1.5" stroke-linecap="round" stroke-linejoin="round"/>
<path d="M18.1826 10.7305V18.2305H25.6826" stroke="white" stroke-width="1.5" stroke-linecap="round" stroke-linejoin="round"/>
<path d="M18.1828 18.2305L12.8828 23.5305" stroke="white" stroke-width="1.5" stroke-linecap="round" stroke-linejoin="round"/>
</g>
<defs>
<clipPath id="clip0_154_248">
<rect width="35" height="35" fill="white" transform="translate(0.682617 0.730469)"/>
</clipPath>
</defs>
</svg>
