<svg width="21" height="21" viewBox="0 0 21 21" fill="none" xmlns="http://www.w3.org/2000/svg">
<path d="M10.2617 20.3411C15.775 20.3411 20.2617 15.8544 20.2617 10.3411C20.2617 4.82774 15.7751 0.341064 10.2617 0.341064C4.74834 0.341064 0.261719 4.82774 0.261719 10.3411C0.261719 15.8544 4.7484 20.3411 10.2617 20.3411ZM10.2617 1.67438C15.0417 1.67438 18.9284 5.56103 18.9284 10.3411C18.9284 15.1211 15.0418 19.0078 10.2617 19.0078C5.48168 19.0078 1.59503 15.1211 1.59503 10.3411C1.59503 5.56103 5.48174 1.67438 10.2617 1.67438Z" fill="url(#paint0_linear_107_677)"/>
<path d="M13.1781 13.5277C13.3014 13.6277 13.448 13.6744 13.5947 13.6744C13.7914 13.6744 13.9847 13.5877 14.1147 13.4244C14.3447 13.1377 14.298 12.7177 14.0114 12.4877L10.928 10.0211V5.00772C10.928 4.64105 10.6281 4.34106 10.2614 4.34106C9.89471 4.34106 9.59473 4.64105 9.59473 5.00772V10.3411C9.59473 10.5444 9.68808 10.7344 9.84472 10.8611L13.1781 13.5277Z" fill="url(#paint1_linear_107_677)"/>
<defs>
<linearGradient id="paint0_linear_107_677" x1="20.2525" y1="0.562142" x2="-1.7991" y2="3.27001" gradientUnits="userSpaceOnUse">
<stop stop-color="#73ED7C"/>
<stop offset="1" stop-color="#019297"/>
</linearGradient>
<linearGradient id="paint1_linear_107_677" x1="14.2587" y1="4.44423" x2="9.05596" y2="4.76364" gradientUnits="userSpaceOnUse">
<stop stop-color="#73ED7C"/>
<stop offset="1" stop-color="#019297"/>
</linearGradient>
</defs>
</svg>
