<svg width="21" height="21" viewBox="0 0 21 21" fill="none" xmlns="http://www.w3.org/2000/svg">
<path d="M12.9448 10.3982L9.40326 13.9398L7.57861 12.1151C7.33447 11.871 6.93896 11.871 6.69482 12.1151C6.45068 12.3593 6.45068 12.7548 6.69482 12.9989L8.96136 15.2654C9.08344 15.3875 9.24335 15.4485 9.40326 15.4485C9.56317 15.4485 9.72308 15.3875 9.84515 15.2654L13.8286 11.282C14.0728 11.0378 14.0728 10.6423 13.8286 10.3982C13.5845 10.1541 13.189 10.1541 12.9448 10.3982Z" fill="url(#paint0_linear_107_660)"/>
<path d="M15.8867 2.81604H14.9492V2.21606C14.9492 1.87091 14.6694 1.59106 14.3242 1.59106C13.9791 1.59106 13.6992 1.87091 13.6992 2.21606V2.81604H6.82422V2.21606C6.82422 1.87091 6.54437 1.59106 6.19922 1.59106C5.85406 1.59106 5.57422 1.87091 5.57422 2.21606V2.81604H4.63672C2.9137 2.81604 1.51172 4.21802 1.51172 5.94104V15.9661C1.51172 17.6891 2.9137 19.0911 4.63672 19.0911H15.8867C17.6097 19.0911 19.0117 17.6891 19.0117 15.9661V5.94104C19.0117 4.21802 17.6097 2.81604 15.8867 2.81604ZM2.76172 5.94104C2.76172 4.9071 3.60278 4.06604 4.63672 4.06604H5.57422V4.66571C5.57422 5.01086 5.85406 5.29071 6.19922 5.29071C6.54437 5.29071 6.82422 5.01086 6.82422 4.66571V4.06604H13.6992V4.66571C13.6992 5.01086 13.9791 5.29071 14.3242 5.29071C14.6694 5.29071 14.9492 5.01086 14.9492 4.66571V4.06604H15.8867C16.9207 4.06604 17.7617 4.9071 17.7617 5.94104V6.57214H2.76172V5.94104ZM15.8867 17.8411H4.63672C3.60278 17.8411 2.76172 17 2.76172 15.9661V7.82214H17.7617V15.9661C17.7617 17 16.9207 17.8411 15.8867 17.8411Z" fill="url(#paint1_linear_107_660)"/>
<defs>
<linearGradient id="paint0_linear_107_660" x1="14.0083" y1="10.2729" x2="5.86636" y2="11.7057" gradientUnits="userSpaceOnUse">
<stop stop-color="#73ED7C"/>
<stop offset="1" stop-color="#019297"/>
</linearGradient>
<linearGradient id="paint1_linear_107_660" x1="19.0036" y1="1.78451" x2="-0.291497" y2="4.15389" gradientUnits="userSpaceOnUse">
<stop stop-color="#73ED7C"/>
<stop offset="1" stop-color="#019297"/>
</linearGradient>
</defs>
</svg>
