<svg width="21" height="21" viewBox="0 0 21 21" fill="none" xmlns="http://www.w3.org/2000/svg">
<g clip-path="url(#clip0_107_665)">
<path d="M20.2336 11.4734C20.2336 11.4733 20.2336 11.4732 20.2336 11.4731L16.4575 1.99171C16.3773 1.79025 16.149 1.69191 15.9475 1.77205C15.9474 1.7721 15.9472 1.77215 15.9471 1.77224L0.62802 7.87215C0.565546 7.89914 0.511367 7.94223 0.470977 7.997C0.343577 8.0632 0.263093 8.19424 0.261719 8.33778V18.5455C0.261719 18.7623 0.437508 18.9381 0.654324 18.9381H17.1437C17.3606 18.9381 17.5364 18.7623 17.5364 18.5455V12.9705L20.0145 11.9835C20.2159 11.9032 20.314 11.6748 20.2336 11.4734ZM16.7511 18.1529H1.04693V8.73039H16.7511V18.1529ZM6.81234 7.94714L13.3861 5.32768C13.9728 5.94436 14.7858 6.29486 15.6369 6.2982L16.2926 7.94714H6.81234ZM17.5364 12.1272V8.33778C17.5364 8.12097 17.3606 7.94518 17.1437 7.94518H17.1375L16.3055 5.85573C16.2963 5.83831 16.2856 5.82172 16.2733 5.80626C16.2312 5.61718 16.0561 5.48816 15.8631 5.50396C15.0711 5.57615 14.2963 5.24253 13.8046 4.61745C13.6823 4.46645 13.4672 4.42891 13.3009 4.52951C13.2823 4.53172 13.2638 4.53515 13.2456 4.53972L5.21993 7.73553C5.12281 7.77361 5.04512 7.84914 5.00439 7.94518H2.5671L15.8733 2.64697L19.3592 11.4001L17.5364 12.1272Z" fill="url(#paint0_linear_107_665)"/>
<path d="M2.11235 15.5025C2.87459 15.7278 3.47106 16.3235 3.6973 17.0854C3.74691 17.2518 3.89988 17.3657 4.07341 17.3658C4.09378 17.3645 4.114 17.3614 4.13388 17.3567C4.15149 17.3617 4.1695 17.3654 4.18766 17.3677H13.6102C13.6264 17.3656 13.6424 17.3623 13.6581 17.3579C13.8542 17.4056 14.0519 17.2853 14.0997 17.0892C14.0998 17.0884 14.1 17.0878 14.1002 17.087C14.3258 16.3243 14.9224 15.7277 15.6851 15.5021C15.8701 15.4455 15.985 15.2612 15.9544 15.0702C15.9597 15.0512 15.9635 15.0317 15.9658 15.0121V11.8713C15.9635 11.8516 15.9596 11.8321 15.954 11.8132C15.9848 11.6221 15.8698 11.4377 15.6847 11.3813C14.922 11.1557 14.3256 10.5589 14.1006 9.79594C14.0437 9.6097 13.8576 9.49447 13.6655 9.52662C13.6474 9.52156 13.6289 9.51788 13.6102 9.51562H4.18766C4.16789 9.51798 4.1483 9.52191 4.12916 9.5274C3.93821 9.49698 3.75398 9.61186 3.6973 9.79673C3.4715 10.5593 2.87499 11.1557 2.11235 11.3813C1.92739 11.4378 1.81245 11.6221 1.84302 11.8132C1.83792 11.8322 1.83424 11.8516 1.83203 11.8713V15.0121C1.83429 15.0306 1.83797 15.0488 1.84302 15.0667C1.81083 15.2589 1.92601 15.4453 2.11235 15.5025ZM2.61724 12.0307C3.40559 11.714 4.03042 11.0892 4.34706 10.3008H13.4504C13.7672 11.0892 14.3922 11.714 15.1806 12.0307V14.8527C14.3925 15.1697 13.7678 15.7944 13.4508 16.5825H4.34706C4.03008 15.7944 3.40535 15.1697 2.61724 14.8527V12.0307Z" fill="url(#paint1_linear_107_665)"/>
<path d="M8.8986 15.7972C10.1996 15.7972 11.2542 14.7426 11.2542 13.4416C11.2542 12.1406 10.1996 11.0859 8.8986 11.0859C7.5976 11.0859 6.54297 12.1406 6.54297 13.4416C6.54424 14.742 7.59814 15.7959 8.8986 15.7972ZM8.8986 11.8711C9.76591 11.8711 10.469 12.5743 10.469 13.4416C10.469 14.3089 9.76591 15.012 8.8986 15.012C8.03129 15.012 7.32818 14.3089 7.32818 13.4416C7.32818 12.5743 8.03129 11.8711 8.8986 11.8711Z" fill="url(#paint2_linear_107_665)"/>
<path d="M4.58012 14.0306C4.90534 14.0306 5.16903 13.7669 5.16903 13.4417C5.16903 13.1165 4.90534 12.8528 4.58012 12.8528C4.25489 12.8528 3.99121 13.1165 3.99121 13.4417C3.99121 13.767 4.25489 14.0306 4.58012 14.0306ZM4.58012 13.2454C4.68853 13.2454 4.77642 13.3333 4.77642 13.4417C4.77642 13.5501 4.68853 13.638 4.58012 13.638C4.47171 13.638 4.38382 13.5501 4.38382 13.4417C4.38382 13.3333 4.47171 13.2454 4.58012 13.2454Z" fill="url(#paint3_linear_107_665)"/>
<path d="M13.2178 14.0306C13.543 14.0306 13.8067 13.7669 13.8067 13.4417C13.8067 13.1165 13.543 12.8528 13.2178 12.8528C12.8926 12.8528 12.6289 13.1165 12.6289 13.4417C12.6289 13.767 12.8926 14.0306 13.2178 14.0306ZM13.2178 13.2454C13.3262 13.2454 13.4141 13.3333 13.4141 13.4417C13.4141 13.5501 13.3262 13.638 13.2178 13.638C13.1094 13.638 13.0215 13.5501 13.0215 13.4417C13.0215 13.3333 13.1094 13.2454 13.2178 13.2454Z" fill="url(#paint4_linear_107_665)"/>
</g>
<defs>
<linearGradient id="paint0_linear_107_665" x1="20.2525" y1="1.9342" x2="-1.68406" y2="5.06754" gradientUnits="userSpaceOnUse">
<stop stop-color="#73ED7C"/>
<stop offset="1" stop-color="#019297"/>
</linearGradient>
<linearGradient id="paint1_linear_107_665" x1="15.9593" y1="9.60243" x2="0.877411" y2="12.9358" gradientUnits="userSpaceOnUse">
<stop stop-color="#73ED7C"/>
<stop offset="1" stop-color="#019297"/>
</linearGradient>
<linearGradient id="paint2_linear_107_665" x1="11.2521" y1="11.138" x2="6.05752" y2="11.7759" gradientUnits="userSpaceOnUse">
<stop stop-color="#73ED7C"/>
<stop offset="1" stop-color="#019297"/>
</linearGradient>
<linearGradient id="paint3_linear_107_665" x1="5.16848" y1="12.8658" x2="3.86985" y2="13.0253" gradientUnits="userSpaceOnUse">
<stop stop-color="#73ED7C"/>
<stop offset="1" stop-color="#019297"/>
</linearGradient>
<linearGradient id="paint4_linear_107_665" x1="13.8062" y1="12.8658" x2="12.5075" y2="13.0253" gradientUnits="userSpaceOnUse">
<stop stop-color="#73ED7C"/>
<stop offset="1" stop-color="#019297"/>
</linearGradient>
<clipPath id="clip0_107_665">
<rect width="20" height="20" fill="white" transform="translate(0.261719 0.341064)"/>
</clipPath>
</defs>
</svg>
