<svg xmlns="http://www.w3.org/2000/svg" viewBox="0 0 64 64" id="product">
  <path d="M27 51.87A3.9916 3.9916 0 0030 48V28a3.9916 3.9916 0 00-3-3.87A3.65643 3.65643 0 0026 24H6a3.99887 3.99887 0 00-4 4V48a3.99891 3.99891 0 004 4H26A3.65874 3.65874 0 0027 51.87zM11 48H7a1.00011 1.00011 0 01.00006-2H11A1.00011 1.00011 0 0111 48zm2-4H7a1.00011 1.00011 0 01.00006-2H13A1.00011 1.00011 0 0113 44zm9-15a3.00883 3.00883 0 01-3 3H13a3.00883 3.00883 0 01-3-3V26h2v3a1.003 1.003 0 001 1h6a1.003 1.003 0 001-1V26h2zM36 17H46a3.01107 3.01107 0 003-3V9a3.00879 3.00879 0 00-3-3H36a3.00879 3.00879 0 00-3 3v5A3.01309 3.01309 0 0036 17z" fill="#ffffff" class="color000000 svgShape"></path>
  <path d="M57 10H51v4h4a2.00587 2.00587 0 012 2V52a2.00591 2.00591 0 01-2 2c-5.10565.00378-30.35992-.004-34.9 0A5.00051 5.00051 0 0025 58H57a5.00181 5.00181 0 005-5V15A5.00181 5.00181 0 0057 10zM25 16a2.00587 2.00587 0 012-2h4V10H25a5.00181 5.00181 0 00-5 5v7h5z" fill="#ffffff" class="color000000 svgShape"></path>
  <path d="M27,22.08A5.99882,5.99882,0,0,1,32,28V48a5.979,5.979,0,0,1-1.53,4H55V16H50.58A5.05069,5.05069,0,0,1,46,19H36a5.01743,5.01743,0,0,1-4.57-3H27Zm17.79,2.21a1.008,1.008,0,0,1,1.42,0l1.29,1.3,3.79-3.8a1.00429,1.00429,0,0,1,1.42,1.42L48.21,27.71a1.01673,1.01673,0,0,1-1.42,0l-2-2A1.008,1.008,0,0,1,44.79,24.29Zm0,9a1.008,1.008,0,0,1,1.42,0l1.29,1.3,3.79-3.8a1.00429,1.00429,0,0,1,1.42,1.42L48.21,36.71a1.01673,1.01673,0,0,1-1.42,0l-2-2A1.008,1.008,0,0,1,44.79,33.29Zm0,9a1.008,1.008,0,0,1,1.42,0l1.29,1.3,3.79-3.8a1.00429,1.00429,0,0,1,1.42,1.42L48.21,45.71a1.01673,1.01673,0,0,1-1.42,0l-2-2A1.008,1.008,0,0,1,44.79,42.29ZM33.5,25c.08313.00183,8.02789-.00134,8.00006,0a1.00011,1.00011,0,0,1-.00012,2H33.5A1.00011,1.00011,0,0,1,33.5,25Zm0,9c.08313.00183,8.02789-.00134,8.00006,0a1.00011,1.00011,0,0,1-.00012,2H33.5A1.00011,1.00011,0,0,1,33.5,34Zm0,9c.08313.00183,8.02789-.00134,8.00006,0a1.00011,1.00011,0,0,1-.00012,2H33.5A1.00011,1.00011,0,0,1,33.5,43Z" fill="#ffffff" class="color000000 svgShape"></path>
</svg>
