<svg width="58" height="59" viewBox="0 0 58 59" fill="none" xmlns="http://www.w3.org/2000/svg">
<g clip-path="url(#clip0_107_1120)">
<path d="M50.7496 6.5957H42.0496C38.0506 6.5957 34.7998 9.84971 34.7998 13.8461V22.5461C34.7998 26.5419 38.0506 29.7959 42.0496 29.7959H50.7496C51.2456 29.7959 51.7299 29.7438 52.1998 29.6477V35.5961C52.1998 41.9931 46.997 47.1959 40.6 47.1959H37.6996C36.096 47.1959 34.7998 48.4952 34.7998 50.0957C34.7998 51.6967 36.096 52.9961 37.6996 52.9961H40.6C50.1958 52.9961 58 45.1919 58 35.5961V13.8461C58 9.84971 54.7492 6.5957 50.7496 6.5957Z" fill="white" fill-opacity="0.2"/>
<path d="M15.9498 6.5957H7.24982C3.25082 6.5957 0 9.84971 0 13.8461V22.5461C0 26.5419 3.25082 29.7959 7.24982 29.7959H15.9498C16.4458 29.7959 16.9301 29.7438 17.4 29.6477V35.5961C17.4 41.9931 12.1972 47.1959 5.80018 47.1959H2.89982C1.29619 47.1959 0 48.4952 0 50.0957C0 51.6967 1.29619 52.9961 2.89982 52.9961H5.80018C15.396 52.9961 23.2002 45.1919 23.2002 35.5961V13.8461C23.2002 9.84971 19.9494 6.5957 15.9498 6.5957Z" fill="white" fill-opacity="0.2"/>
</g>
<defs>
<clipPath id="clip0_107_1120">
<rect width="58" height="58" fill="white" transform="translate(0 0.795898)"/>
</clipPath>
</defs>
</svg>
