<svg xmlns="http://www.w3.org/2000/svg" viewBox="0 0 200 200" id="Statistics">
  <path d="M47.57,141.32h10.9a2.09,2.09,0,0,0,2.09-2.08v-13.3a2.09,2.09,0,0,0-2.09-2.08H47.57a2.08,2.08,0,0,0-2.08,2.08v13.3A2.08,2.08,0,0,0,47.57,141.32ZM49.65,128h6.74v9.12H49.65ZM83,95.32H72.1A2.08,2.08,0,0,0,70,97.4v41.84a2.08,2.08,0,0,0,2.08,2.08H83a2.09,2.09,0,0,0,2.09-2.08V97.4A2.09,2.09,0,0,0,83,95.32Zm-2.08,41.83H74.19V99.49h6.73ZM132.07,79H121.16a2.08,2.08,0,0,0-2.08,2.08v58.19a2.08,2.08,0,0,0,2.08,2.08h10.91a2.08,2.08,0,0,0,2.08-2.08V81.05A2.08,2.08,0,0,0,132.07,79ZM130,137.15h-6.73v-54H130Zm15.71-41.83a2.08,2.08,0,0,0-2.08,2.08v41.84a2.08,2.08,0,0,0,2.08,2.08H156.6a2.08,2.08,0,0,0,2.08-2.08V97.4a2.08,2.08,0,0,0-2.08-2.08Zm8.82,41.83h-6.73V99.49h6.73Zm-47-25.48H96.63a2.09,2.09,0,0,0-2.08,2.09v25.48a2.08,2.08,0,0,0,2.08,2.08h10.9a2.08,2.08,0,0,0,2.09-2.08V113.76A2.09,2.09,0,0,0,107.53,111.67Zm-2.08,25.48H98.72V115.84h6.73ZM53,111.75a6.16,6.16,0,0,0,5.15-9.56L75.75,78.74a6,6,0,0,0,1.8.3,6.12,6.12,0,0,0,3.66-1.22l14.9,9.92a6.09,6.09,0,0,0-.2,1.49,6.18,6.18,0,0,0,12.35,0,6.11,6.11,0,0,0-1-3.4l17.58-23.44a6,6,0,0,0,1.8.3,6.13,6.13,0,0,0,3.66-1.23l14.9,9.93a6.07,6.07,0,0,0-.2,1.48,6.24,6.24,0,1,0,2.52-4.94L132.59,58a6.6,6.6,0,0,0,.2-1.48,6.18,6.18,0,0,0-12.35,0,6.1,6.1,0,0,0,1,3.39L103.88,83.35a6.28,6.28,0,0,0-1.8-.3,6.1,6.1,0,0,0-3.65,1.23L83.52,74.35a6,6,0,0,0,.2-1.48,6.17,6.17,0,1,0-12.34,0,6.08,6.08,0,0,0,1,3.39L54.82,99.71a6,6,0,0,0-1.8-.3,6.17,6.17,0,1,0,0,12.34ZM153.15,72.87a2,2,0,1,1-2-2A2,2,0,0,1,153.15,72.87ZM126.61,54.51a2,2,0,1,1-2,2A2,2,0,0,1,126.61,54.51ZM104.09,89.23a2,2,0,1,1-2-2A2,2,0,0,1,104.09,89.23ZM77.55,70.87a2,2,0,1,1-2,2A2,2,0,0,1,77.55,70.87ZM53,103.57a2,2,0,1,1-2,2A2,2,0,0,1,53,103.57Zm128.23-86.9H22.92a6.25,6.25,0,0,0-6.25,6.25V33.33a6.25,6.25,0,0,0,6.25,6.25H25V150a6.25,6.25,0,0,0,6.25,6.25H100V169a9.38,9.38,0,1,0,4.17,0V156.25h68.75a6.26,6.26,0,0,0,6.25-6.25V39.58h2.08a6.25,6.25,0,0,0,6.25-6.25V22.92A6.25,6.25,0,0,0,181.25,16.67Zm-74,161.46a5.21,5.21,0,1,1-5.21-5.21A5.2,5.2,0,0,1,107.29,178.13ZM175,150a2.08,2.08,0,0,1-2.08,2.08H31.25A2.08,2.08,0,0,1,29.17,150V39.58H175Zm8.33-116.67a2.09,2.09,0,0,1-2.08,2.09H22.92a2.1,2.1,0,0,1-2.09-2.09V22.92a2.1,2.1,0,0,1,2.09-2.09H181.25a2.09,2.09,0,0,1,2.08,2.09Z" fill="#ffffff" class="color000000 svgShape"></path>
</svg>
