<svg width="129" height="41" viewBox="0 0 129 41" fill="none" xmlns="http://www.w3.org/2000/svg">
<g clip-path="url(#clip0_128_138)">
<path d="M67.9615 10.3709C67.9615 11.8125 66.7999 12.9733 65.3583 12.9733C63.9168 12.9733 62.756 11.8125 62.756 10.3709C62.756 8.92935 63.8772 7.76856 65.3583 7.76856C66.8407 7.80856 67.9615 8.96974 67.9615 10.3709ZM57.2305 15.6164V16.2572C57.2305 16.2572 55.9897 14.6548 53.347 14.6548C48.9831 14.6548 45.5791 17.9784 45.5791 22.5827C45.5791 27.1474 48.9431 30.5105 53.347 30.5105C56.0297 30.5105 57.2305 28.8689 57.2305 28.8689V29.5493C57.2305 29.8697 57.4713 30.1093 57.7913 30.1093H61.034V15.054H57.7913C57.4713 15.0552 57.2305 15.336 57.2305 15.6164ZM57.2305 25.2654C56.6305 26.1466 55.4289 26.9074 53.9878 26.9074C51.4254 26.9074 49.4631 25.3058 49.4631 22.5827C49.4631 19.8599 51.4254 18.2584 53.9878 18.2584C55.3893 18.2584 56.6705 19.0591 57.2305 19.8999V25.2654ZM63.4368 15.0552H67.2803V30.1105H63.4368V15.0552ZM120.854 14.6544C118.211 14.6544 116.969 16.2568 116.969 16.2568V7.80857H113.126V30.1105H116.369C116.69 30.1105 116.929 29.8301 116.929 29.5497V28.8694C116.929 28.8694 118.171 30.5109 120.813 30.5109C125.178 30.5109 128.581 27.1486 128.581 22.5839C128.581 18.0192 125.178 14.6544 120.854 14.6544ZM120.213 26.867C118.731 26.867 117.57 26.107 116.969 25.2254V19.8599C117.57 19.0591 118.851 18.2184 120.213 18.2184C122.775 18.2184 124.737 19.8199 124.737 22.5427C124.737 25.2654 122.776 26.867 120.213 26.867ZM111.124 21.1819V30.1505H107.28V21.6219C107.28 19.1399 106.479 18.1384 104.318 18.1384C103.158 18.1384 101.956 18.7391 101.194 19.6203V30.1109H97.3513V15.0556H100.393C100.714 15.0556 100.954 15.336 100.954 15.6164V16.2572C102.075 15.0956 103.556 14.6548 105.038 14.6548C106.719 14.6548 108.121 15.136 109.242 16.0968C110.603 17.218 111.124 18.6592 111.124 21.1819ZM88.0207 14.6544C85.3787 14.6544 84.1372 16.2568 84.1372 16.2568V7.80857H80.2936V30.1105H83.5364C83.8568 30.1105 84.0972 29.8301 84.0972 29.5497V28.8694C84.0972 28.8694 85.3387 30.5109 87.9807 30.5109C92.3454 30.5109 95.7485 27.1486 95.7485 22.5839C95.7885 18.0188 92.3854 14.6544 88.0207 14.6544ZM87.3799 26.867C85.8987 26.867 84.738 26.107 84.1372 25.2254V19.8599C84.738 19.0591 86.0191 18.2184 87.3799 18.2184C89.943 18.2184 91.9046 19.8199 91.9046 22.5427C91.9046 25.2654 89.943 26.867 87.3799 26.867ZM76.9701 14.6544C78.1309 14.6544 78.7317 14.8552 78.7317 14.8552V18.4184C78.7317 18.4184 75.5285 17.3372 73.527 19.6199V30.1501H69.6826V15.0552H72.9262C73.2466 15.0552 73.4862 15.3356 73.4862 15.616V16.2568C74.2077 15.4156 75.7693 14.6544 76.9701 14.6544ZM37.0513 28.749C36.8513 28.2686 36.6509 27.7482 36.4509 27.3074C36.1301 26.587 35.8097 25.9058 35.5301 25.2654L35.4901 25.2254C32.727 19.2191 29.7646 13.1337 26.6411 7.12818L26.5211 6.88738C26.1926 6.26438 25.8724 5.63701 25.5607 5.00542C25.1599 4.28424 24.7599 3.52425 24.1192 2.80306C22.838 1.2015 20.996 0.320312 19.0345 0.320312C17.0321 0.320312 15.2305 1.2015 13.9098 2.72267C13.309 3.44305 12.8682 4.20384 12.4682 4.92503C12.1557 5.55622 11.8355 6.18358 11.5078 6.80699L11.3874 7.04778C8.30427 13.0533 5.30153 19.1391 2.53879 25.145L2.49839 25.2246C2.2184 25.8662 1.8976 26.5466 1.57721 27.2666C1.37721 27.7074 1.17722 28.1878 0.97722 28.7081C0.456431 30.1893 0.296026 31.5909 0.496822 33.0329C0.937213 36.036 2.93877 38.5576 5.70192 39.6795C6.7431 40.1203 7.82428 40.3203 8.94505 40.3203C9.26545 40.3203 9.66545 40.2803 9.98624 40.2399C11.3078 40.0799 12.669 39.6399 13.9906 38.8791C15.6321 37.958 17.1937 36.6372 18.9553 34.7152C20.7168 36.6372 22.3184 37.958 23.92 38.8791C25.2419 39.6399 26.6027 40.0799 27.9239 40.2399C28.2443 40.2807 28.6451 40.3203 28.9655 40.3203C30.0866 40.3203 31.2074 40.1203 32.2082 39.6795C35.0113 38.5576 36.9729 35.996 37.4137 33.0329C37.7317 31.6317 37.5717 30.2309 37.0513 28.749ZM18.9941 30.8309C16.8317 28.1082 15.4301 25.5458 14.9501 23.3843C14.7501 22.4631 14.7097 21.6623 14.8301 20.9415C14.9097 20.3007 15.1505 19.7399 15.4709 19.2595C16.2317 18.1792 17.5129 17.498 18.9945 17.498C20.4764 17.498 21.7976 18.1388 22.5184 19.2595C22.8388 19.7399 23.0788 20.3011 23.1596 20.9415C23.2792 21.6627 23.2392 22.5031 23.0392 23.3843C22.5572 25.5058 21.1556 28.0686 18.9941 30.8309ZM34.9689 32.7129C34.6889 34.7948 33.2874 36.5972 31.3258 37.398C30.365 37.798 29.3234 37.9184 28.2831 37.798C27.2823 37.6776 26.2807 37.3572 25.2403 36.7572C23.7988 35.9556 22.3576 34.7152 20.6756 32.8729C23.318 29.6301 24.9195 26.6666 25.5203 24.0246C25.8007 22.7831 25.8411 21.6623 25.7203 20.6207C25.5607 19.6199 25.1999 18.6987 24.6395 17.898C23.3976 16.0956 21.3152 15.0552 18.9937 15.0552C16.6721 15.0552 14.5897 16.1364 13.3486 17.898C12.7882 18.6987 12.4274 19.6199 12.2674 20.6207C12.1074 21.6623 12.147 22.8231 12.4674 24.0246C13.0678 26.6666 14.7093 29.6697 17.3117 32.9129C15.6701 34.7548 14.1886 35.9964 12.747 36.7972C11.7058 37.398 10.7054 37.7184 9.70465 37.838C8.62387 37.9584 7.58229 37.798 6.66151 37.438C4.69995 36.6372 3.29837 34.8348 3.01838 32.7529C2.89838 31.7521 2.97798 30.7513 3.37877 29.6301C3.49837 29.2293 3.69916 28.8294 3.89916 28.349C4.17955 27.7082 4.49915 27.027 4.81994 26.3466L4.86035 26.267C7.62269 20.3007 10.5854 14.2148 13.6686 8.28935L13.7886 8.04856C14.1094 7.44858 14.4298 6.80779 14.7497 6.207C15.0701 5.56621 15.4301 4.96542 15.8709 4.44463C16.7117 3.48465 17.8325 2.96346 19.0741 2.96346C20.3156 2.96346 21.4364 3.48465 22.2772 4.44463C22.718 4.96662 23.078 5.56741 23.3984 6.207C23.7192 6.80779 24.0396 7.44858 24.3591 8.04856L24.4795 8.28935C27.5157 14.2395 30.4391 20.2464 33.2482 26.307V26.347C33.569 26.9886 33.849 27.7086 34.1694 28.3502C34.3694 28.8298 34.5697 29.2297 34.6897 29.6305C35.0093 30.6705 35.1293 31.6721 34.9689 32.7129Z" fill="#FF5A5F"/>
</g>
<defs>
<clipPath id="clip0_128_138">
<rect width="128.205" height="40" fill="white" transform="translate(0.394531 0.320312)"/>
</clipPath>
</defs>
</svg>
