<svg width="83" height="41" viewBox="0 0 83 41" fill="none" xmlns="http://www.w3.org/2000/svg">
<g clip-path="url(#clip0_128_154)">
<mask id="mask0_128_154" style="mask-type:luminance" maskUnits="userSpaceOnUse" x="-161" y="-79" width="405" height="198">
<path d="M-160.392 118.824H243.385V-78.1809H-160.392V118.824Z" fill="white"/>
</mask>
<g mask="url(#mask0_128_154)">
<path d="M81.039 22.6828C80.5154 22.2871 80.4293 22.2266 77.2825 21.1902C80.008 20.5199 80.1251 20.4486 80.6083 20.131C81.7025 19.3894 82.2866 18.1592 82.2018 16.8268L82.1911 16.6814C81.969 14.5427 79.2139 10.5077 77.3593 9.60189C76.1358 9.01776 74.7751 9.09985 73.7038 9.81991C73.199 10.1537 73.1318 10.1995 71.0604 13.0273C70.8585 9.72304 70.4695 3.89655 70.374 3.35146L70.3538 3.2263L70.3228 3.10518C69.9689 1.82521 68.9648 0.864243 67.635 0.530457C65.4156 -0.0227127 59.5461 1.63139 57.9714 3.25456C57.0468 4.21958 56.6915 5.51839 57.0104 6.73645L57.075 6.9787L57.1841 7.20346C57.3348 7.51436 57.7318 8.17252 61.1383 13.5171L62.3941 15.4956C59.3442 14.248 59.2231 14.2439 58.5919 14.2386C57.39 14.1861 56.1854 14.8294 55.4599 15.9654L55.4465 15.9869C55.0723 16.5898 54.8408 17.4095 54.6968 18.2682C53.7143 16.9438 52.2351 15.8819 49.9928 15.4418C48.4033 15.1228 46.912 15.3153 45.5069 15.8832C44.2202 15.0622 42.4517 14.9667 40.9725 15.8106C40.5638 16.0405 40.2022 16.3456 39.9066 16.7097V14.8954L39.7652 13.8173L39.7222 13.6235C39.4248 12.4539 38.5418 11.4673 37.3601 10.9828L37.3494 10.9774C36.0519 10.4539 34.597 10.579 33.3628 11.3179C32.0478 12.0945 31.3735 13.3839 31.3735 15.147V18.8469C30.9116 18.1225 30.3251 17.4855 29.6413 16.9654C27.7947 15.5656 25.3182 15.0932 22.4837 15.602C20.8404 15.8873 19.4662 16.6047 18.3774 17.6572L18.3249 17.5481C17.7717 16.5575 16.874 15.8765 15.7246 15.575C13.8053 15.0488 11.3692 15.7016 10.3638 19.1336L9.97755 20.4459C9.53743 19.6384 8.39611 17.4324 8.34901 17.3665C7.32073 15.8079 5.26146 15.1323 3.42025 15.8644C1.64096 16.5347 0.611328 18.1 0.611328 19.9398C0.611328 20.5199 0.712264 21.1242 0.923572 21.738L0.976065 21.8874L5.68947 31.4878C3.98958 31.936 2.77827 33.2038 2.58177 34.9427C2.50262 35.5752 2.57673 36.2174 2.79786 36.8152C3.01899 37.4129 3.38064 37.9488 3.85231 38.3775C5.13093 39.5579 7.11749 39.9482 9.44995 39.4704C11.9843 38.9724 13.4419 37.4448 14.4635 34.2052L16.018 29.3208C16.5241 31.3774 17.4447 32.7206 18.3181 33.582C19.5739 34.8243 21.8741 36.1984 25.6816 35.6843C28.5107 35.2886 30.469 34.0221 31.5269 32.5335L31.5956 32.8929C31.897 33.9548 32.7167 34.8983 33.8177 35.4003C34.3911 35.6635 35.0152 35.7977 35.6461 35.7935C36.277 35.7893 36.8993 35.6468 37.4691 35.3761C38.0788 35.1109 38.5956 34.6924 38.9981 34.1688V35.7085C38.9981 38.2537 40.4705 39.3358 41.348 39.7557C41.9216 40.0423 42.551 40.2001 43.1919 40.218C43.8329 40.2359 44.47 40.1135 45.0587 39.8593C46.1866 39.3707 47.0237 38.4408 47.3521 37.3115L47.4033 37.1379L47.5567 36.0881V35.6372C49.087 35.7933 50.6847 35.5443 52.0911 34.8149C52.7129 34.4918 53.2567 34.1029 53.7426 33.656H54.7762C55.3388 33.9521 55.9781 34.1365 56.6659 34.1365C57.3563 34.1365 57.9943 33.9521 58.5555 33.656H61.5529C63.5381 34.7731 66.4399 35.6197 67.993 35.3532C69.3309 35.1163 70.3847 34.255 70.8302 33.0477L70.8531 32.9871C71.0415 32.438 71.0725 32.3357 71.086 29.2334C72.7872 31.9817 72.876 32.0544 73.3538 32.4313C74.3807 33.2321 75.7307 33.4084 76.977 32.9064C78.9784 32.1028 82.0363 28.2158 82.3432 26.0826C82.3687 25.8968 82.3836 25.7084 82.3836 25.524C82.3836 24.4069 81.9017 23.3719 81.039 22.6828ZM49.9821 15.4391C49.9861 15.4418 49.9888 15.4418 49.9928 15.4418C49.9955 15.4445 49.9982 15.4445 50.0023 15.4445L49.9821 15.4391ZM76.9797 32.9064H76.977C76.973 32.9064 76.9716 32.9104 76.9676 32.9117L76.9797 32.9064Z" fill="white"/>
<path d="M49.9824 15.4395L49.9932 15.4422C49.9972 15.4448 49.9986 15.4449 50.0039 15.4449L49.9824 15.4395ZM76.9814 32.9067H76.9774C76.9747 32.9067 76.9733 32.9108 76.9693 32.9121L76.9814 32.9067Z" stroke="white" stroke-width="5.95229" stroke-linecap="round" stroke-linejoin="round"/>
</g>
<path d="M57.2334 18.3729C56.7476 19.1508 56.5444 21.595 56.7124 23.2193C56.7703 23.7549 56.866 24.2019 57.0102 24.4671C57.2039 24.8371 57.5293 25.0579 57.9009 25.0702C58.1364 25.0822 58.2862 25.0431 62.7651 23.5989C62.7651 23.5989 64.7558 22.9663 64.7664 22.9622C65.2591 22.8344 65.5957 22.3795 65.6279 21.7967C65.6602 21.1978 65.3492 20.6715 64.8432 20.4806L63.438 19.9071C58.6225 17.9207 58.4083 17.8453 58.1635 17.8426C57.7933 17.8251 57.4635 18.015 57.2334 18.3729ZM67.9995 33.1671C68.0787 32.9409 68.0869 32.7862 68.0989 28.0808C68.0989 28.0808 68.111 26.0016 68.1153 25.9786C68.1448 25.4726 67.8164 25.0068 67.2752 24.7983C66.7194 24.5827 66.1205 24.7147 65.7826 25.1346C65.7826 25.1346 64.8028 26.2975 64.799 26.2988C61.4274 30.2625 61.2859 30.4431 61.2053 30.6799C61.1534 30.8172 61.1344 30.9647 61.1501 31.1105C61.1717 31.319 61.2643 31.5305 61.4247 31.7187C62.2053 32.6515 65.9563 34.031 67.1514 33.8267C67.5672 33.7512 67.8716 33.5144 67.9995 33.1671ZM75.6038 31.5289C76.7371 31.078 79.2054 27.9395 79.3776 26.7338C79.4368 26.3122 79.3065 25.9516 79.0155 25.7188C78.8286 25.5762 78.6792 25.521 74.2068 24.0513C74.2068 24.0513 72.2404 23.4024 72.2189 23.3917C71.741 23.206 71.1997 23.377 70.8353 23.8278C70.4555 24.2896 70.3965 24.8964 70.7019 25.3579L71.4921 26.6434C74.1503 30.9611 74.3508 31.2652 74.5418 31.416C74.838 31.6461 75.2161 31.6876 75.6038 31.5289ZM73.2956 20.4172C78.383 19.1871 78.5781 19.1224 78.78 18.9907C79.0882 18.7806 79.2404 18.436 79.2147 18.0095C79.2147 17.9945 79.2161 17.9825 79.2147 17.9677C79.083 16.7199 76.8959 13.4697 75.8177 12.9421C75.4341 12.7604 75.0519 12.7727 74.7369 12.9825C74.5404 13.1142 74.3937 13.3027 71.6724 17.0309C71.6724 17.0309 70.4407 18.7079 70.426 18.7227C70.1017 19.1158 70.0976 19.6825 70.4123 20.168C70.7396 20.6702 71.2967 20.9153 71.8057 20.774C71.8057 20.774 71.7828 20.809 71.7784 20.8169C72.0276 20.7213 72.4798 20.6112 73.2956 20.4172ZM68.1864 16.2167C68.0976 14.2003 67.4932 5.22466 67.4219 4.81018C67.3181 4.4304 67.0235 4.16264 66.5995 4.05636C65.3036 3.73341 60.3383 5.1263 59.4192 6.07547C59.1258 6.38203 59.0154 6.7629 59.1028 7.09951C59.2468 7.39568 65.3962 17.0713 65.3962 17.0713C66.3061 18.5464 67.0479 18.3164 67.2899 18.2407C67.5323 18.1656 68.27 17.9355 68.1864 16.2167Z" fill="#E9E9E9"/>
<path d="M57.6397 17.3552C57.155 18.1319 56.9503 20.5773 57.1186 22.2005C57.1779 22.736 57.2749 23.183 57.4162 23.4497C57.6102 23.8185 57.9356 24.0376 58.3069 24.0513C58.5454 24.0633 58.6935 24.0229 63.1727 22.5827C63.1727 22.5827 65.1631 21.9475 65.1713 21.9434C65.668 21.8169 66.0019 21.3606 66.0339 20.7778C66.0664 20.1803 65.7579 19.6527 65.2494 19.4617C65.2494 19.4617 63.8456 18.8896 63.8429 18.8896C59.0298 16.9044 58.8132 16.8265 58.5708 16.8238C58.1992 16.8087 57.8697 16.9959 57.6397 17.3552ZM68.4068 32.1469C68.4849 31.9207 68.4942 31.766 68.5079 27.0606C68.5079 27.0606 68.5185 24.9814 68.5199 24.9611C68.5522 24.451 68.2224 23.9866 67.6828 23.7795C67.1268 23.5652 66.5279 23.6975 66.1915 24.1158C66.1915 24.1158 65.209 25.2814 65.2063 25.2814C61.8347 29.2423 61.6935 29.4253 61.6112 29.6597C61.5605 29.7976 61.5421 29.9453 61.5574 30.0914C61.5776 30.3018 61.6732 30.5089 61.8306 30.7026C62.6126 31.6316 66.3623 33.0108 67.5601 32.8064C67.9762 32.731 68.2787 32.4969 68.4068 32.1469ZM76.0138 30.5089C77.1444 30.0581 79.6103 26.9207 79.7838 25.7133C79.8444 25.2934 79.7127 24.9314 79.4231 24.6999C79.2332 24.5573 79.0892 24.5021 74.6128 23.0325C74.6128 23.0325 72.6491 22.3836 72.6237 22.3713C72.1483 22.1871 71.606 22.3581 71.2412 22.8076C70.8617 23.2693 70.8051 23.8789 71.1081 24.3393L71.898 25.6262C74.5548 29.9409 74.7581 30.2463 74.9494 30.3958C75.2453 30.6286 75.6223 30.6663 76.0138 30.5089ZM73.7002 19.3997C78.7876 18.1669 78.9843 18.1022 79.1849 17.9705C79.4931 17.7631 79.648 17.4158 79.6209 16.9932C79.6209 16.9798 79.6237 16.965 79.6209 16.9503C79.4903 15.7011 77.3018 12.4522 76.224 11.9246C75.8414 11.7416 75.4595 11.7536 75.142 11.9661C74.9453 12.094 74.8013 12.288 72.077 16.0134C72.077 16.0134 70.8469 17.6891 70.8322 17.7052C70.5079 18.0997 70.5024 18.665 70.8202 19.1494C71.1486 19.6513 71.703 19.8964 72.2117 19.7552C72.2117 19.7552 72.1915 19.7915 72.1863 19.7981C72.4366 19.7038 72.8846 19.5937 73.7002 19.3997ZM68.594 15.1992C68.5065 13.1828 67.8994 4.20581 67.8281 3.78996C67.7259 3.41292 67.4311 3.14379 67.0084 3.03751C65.7095 2.71593 60.7459 4.10608 59.8265 5.05498C59.5306 5.36318 59.4216 5.74268 59.5104 6.07929C59.6558 6.37683 65.8052 16.0525 65.8052 16.0525C66.7136 17.5262 67.4554 17.2975 67.6989 17.2207C67.9399 17.1467 68.6773 16.918 68.594 15.1992Z" fill="#BF2519"/>
<path d="M5.60267 36.4784C6.24338 37.0719 7.45731 37.2402 8.93243 36.9402C10.3149 36.667 11.172 36.0492 11.9972 33.426L16.1062 20.5157C16.3187 19.8305 16.3029 19.2357 16.0592 18.7944C15.8611 18.4389 15.5316 18.198 15.0657 18.0742C14.3335 17.8736 13.4198 17.8939 12.8436 19.8616L10.6876 27.1851C10.6876 27.1851 6.29584 18.8887 6.29311 18.8873C6.01579 18.3327 5.20295 17.9359 4.37509 18.2643C3.29586 18.6747 2.9363 19.6452 3.3669 20.8955C3.3669 20.8955 8.70894 31.7664 8.72123 31.7959C8.72123 31.7959 8.86659 32.1837 8.86659 32.2468C8.86659 32.2468 8.91495 32.5418 8.91495 32.5525C8.90402 32.9711 8.76413 33.3235 8.51386 33.5591C8.26768 33.7907 7.92561 33.9118 7.52589 33.8957C7.52589 33.8957 6.69283 33.8765 6.62972 33.8765C5.77371 33.9817 5.23519 34.473 5.14885 35.232C5.08874 35.7208 5.24612 36.15 5.60267 36.4784ZM26.6514 24.2373H20.9313C20.7763 24.1244 20.7012 23.9345 20.8168 23.3638C20.8895 23.0638 20.9676 22.7946 21.1966 22.4176C21.2703 22.3048 21.3471 22.1889 21.4211 22.0733C21.8397 21.5441 22.4064 21.205 23.0512 21.0542C25.0621 20.563 26.4643 21.5845 26.6919 23.3274C26.8009 24.0881 26.7293 24.2373 26.6514 24.2373ZM30.167 23.2414C29.9826 21.3761 29.2626 19.9198 28.0823 19.0275C26.8249 18.0731 25.0457 17.769 22.9394 18.1458C20.2987 18.6034 18.7132 20.4903 18.3499 23.6102C17.9029 27.3397 18.5165 30.1501 20.1304 31.7394C21.3471 32.9416 23.1468 33.4192 25.3353 33.123C28.4563 32.6842 29.8599 30.9711 29.8599 29.8875C29.8599 29.0908 29.3782 28.4635 28.6703 28.3681C28.2651 28.2872 27.9233 28.3681 27.1667 29.0449C26.0766 29.9951 24.8129 30.3774 23.693 30.0935C22.8397 29.8768 22.1736 29.2886 21.872 28.4823C21.872 28.4823 21.7375 27.9495 21.7455 28.0085C21.6539 27.5282 21.6124 27.0517 21.9083 26.8577L21.9875 26.8039H28.8438C29.4766 26.8039 29.7968 26.7219 29.9812 26.5225C30.3582 26.1042 30.3282 24.9091 30.167 23.2414ZM36.3822 13.3759C35.8399 13.1551 35.2276 13.2144 34.6905 13.5346C34.1738 13.8403 33.9582 14.3059 33.9582 15.1472V31.4946C33.9582 31.4946 34.0484 32.0787 34.0579 32.1041C34.1738 32.5121 34.4752 32.8593 34.8937 33.0489C35.3582 33.2645 35.8937 33.2604 36.373 33.0356C36.9691 32.7771 37.3205 32.1809 37.3205 31.4421V15.0635C37.3205 15.0635 37.2167 14.2723 37.2167 14.2575C37.121 13.8778 36.8077 13.5496 36.3822 13.3759ZM49.3193 29.9804C47.0554 29.9804 46.6947 27.9708 46.6234 26.4542C46.6193 26.4501 46.5937 25.5657 46.5937 25.5657C46.5937 25.5657 46.6193 24.9091 46.6193 24.8834C46.7661 22.2589 47.3084 21.2239 48.6934 20.9359C49.6234 20.7206 50.3341 20.8255 50.8671 21.2548C51.6677 21.8996 52.0204 23.2643 51.9882 25.5416C51.9652 28.2077 51.501 29.9804 49.3193 29.9804ZM49.4874 17.9777C47.9707 17.6679 46.6732 17.9277 45.4254 18.7728C45.4254 18.7728 45.2855 18.8859 45.2316 18.9184L45.1199 18.975L44.7784 19.1283L44.6811 18.7447L44.5991 18.6061L44.5707 18.5201L44.5614 18.4944C44.5614 18.4944 44.4781 18.3827 44.4658 18.3652C44.1079 17.8078 43.1347 17.5523 42.2573 18.0529C41.8278 18.2966 41.5817 18.6398 41.5817 19.6641V35.7085C41.5817 36.5874 41.8576 37.1339 42.4604 37.4219C42.9691 37.6776 43.5412 37.6978 44.0325 37.4866C44.4497 37.3036 44.7565 36.9803 44.871 36.5875L44.9721 35.8997V33.123L44.9423 32.6763L44.9543 32.5443L44.9718 32.4812L45.1374 31.9522L45.6396 32.2858C45.6396 32.2858 45.7661 32.3694 45.8199 32.426L45.9707 32.5255C45.9718 32.5268 46.1456 32.6279 46.1456 32.6279C46.1483 32.6279 46.307 32.7058 46.307 32.7058C47.6529 33.341 49.4538 33.267 50.9035 32.52C52.7286 31.5673 53.6302 29.8768 53.8387 27.0383C54.2748 21.3651 52.9693 18.6548 49.4874 17.9777ZM56.5212 31.2361H56.7083C56.8603 31.2361 57.0032 31.2279 57.0032 31.0572C57.0032 30.9036 56.8726 30.8878 56.7553 30.8878H56.5212V31.2361ZM56.3676 30.7503H56.7687C57.0313 30.7503 57.154 30.846 57.154 31.0637C57.154 31.2604 57.0286 31.3424 56.8644 31.3599L57.1807 31.8432H57.0152L56.7163 31.3733H56.5212V31.8432H56.3676V30.7503ZM56.7217 32.0962C57.1644 32.0962 57.5212 31.7476 57.5212 31.2858C57.5212 30.8323 57.1646 30.4826 56.7217 30.4826C56.2775 30.4826 55.9209 30.8323 55.9209 31.2954C55.92 31.4008 55.94 31.5054 55.9799 31.6029C56.0199 31.7005 56.0788 31.7892 56.1534 31.8637C56.2279 31.9382 56.3166 31.9971 56.4142 32.037C56.5118 32.0769 56.6163 32.0969 56.7217 32.0959V32.0962ZM56.7217 30.3465C57.2387 30.3465 57.6734 30.7531 57.6734 31.2858C57.6734 31.8282 57.2387 32.2334 56.7217 32.2334C56.2034 32.2334 55.7701 31.8282 55.7701 31.2954C55.7701 30.7531 56.2034 30.3465 56.7217 30.3465Z" fill="#231F20"/>
</g>
<defs>
<clipPath id="clip0_128_154">
<rect width="81.9672" height="40" fill="white" transform="translate(0.513672 0.320312)"/>
</clipPath>
</defs>
</svg>
