<svg width="163" height="41" viewBox="0 0 163 41" fill="none" xmlns="http://www.w3.org/2000/svg">
<path d="M42.8543 14.4053H59.3377V17.4738H52.8475V34.7719H49.2901V17.4738H42.8271L42.8543 14.4053ZM58.6316 20.0264H61.673V22.8778H61.7273C61.836 22.4704 62.0261 22.0903 62.2976 21.7101C62.5692 21.3299 62.895 20.9769 63.3024 20.6782C63.6825 20.3523 64.117 20.1079 64.6058 19.9178C65.0675 19.7277 65.5563 19.6191 66.0451 19.6191C66.4252 19.6191 66.6968 19.6463 66.8326 19.6463C66.9683 19.6734 67.1313 19.7006 67.2671 19.7006V22.8235C67.0498 22.7692 66.8054 22.742 66.561 22.7148C66.3166 22.6877 66.0994 22.6605 65.855 22.6605C65.3119 22.6605 64.7959 22.7691 64.3071 22.9864C63.8183 23.2036 63.411 23.5295 63.0308 23.9368C62.6778 24.3713 62.3791 24.8873 62.1618 25.5119C61.9446 26.1364 61.836 26.8696 61.836 27.6843V34.6904H58.5773L58.6316 20.0264ZM82.2026 34.7719H78.9982V32.708H78.9439C78.5366 33.4684 77.9392 34.0387 77.1516 34.5003C76.3641 34.962 75.5495 35.1792 74.7348 35.1792C72.8068 35.1792 71.3947 34.7175 70.5257 33.74C69.6567 32.7895 69.2222 31.3231 69.2222 29.3951V20.0264H72.4809V29.0692C72.4809 30.3727 72.7253 31.296 73.2413 31.8119C73.7301 32.355 74.4361 32.6266 75.3322 32.6266C76.0111 32.6266 76.5814 32.518 77.043 32.3007C77.5047 32.0835 77.8848 31.8119 78.1564 31.4589C78.4551 31.1059 78.6452 30.6714 78.781 30.1826C78.9167 29.6938 78.9711 29.1507 78.9711 28.5804V20.0264H82.2297V34.7719H82.2026ZM87.7423 30.0468C87.8509 30.9972 88.2039 31.649 88.8285 32.0563C89.4531 32.4365 90.2134 32.6266 91.0824 32.6266C91.3811 32.6266 91.7341 32.5994 92.1143 32.5451C92.4945 32.4908 92.8747 32.4093 93.2005 32.2736C93.5535 32.1378 93.8251 31.9477 94.0423 31.6761C94.2596 31.4046 94.3682 31.0787 94.341 30.6714C94.3139 30.2641 94.1781 29.911 93.8794 29.6395C93.5807 29.3679 93.2277 29.1778 92.7932 28.9877C92.3587 28.8248 91.8427 28.689 91.2725 28.5804C90.7022 28.4718 90.132 28.336 89.5345 28.2002C88.9371 28.0645 88.3397 27.9015 87.7694 27.7114C87.1992 27.5214 86.7104 27.277 86.2487 26.9239C85.8142 26.5981 85.4341 26.1907 85.1897 25.6748C84.9181 25.1588 84.7823 24.5614 84.7823 23.8011C84.7823 22.9864 84.9724 22.3347 85.3797 21.7916C85.7599 21.2484 86.2759 20.814 86.8733 20.4881C87.4707 20.1622 88.1496 19.9178 88.8828 19.7821C89.616 19.6463 90.322 19.592 90.9738 19.592C91.7341 19.592 92.4673 19.6734 93.1462 19.8364C93.8251 19.9993 94.4768 20.2437 95.0199 20.6239C95.5902 20.9769 96.0518 21.4657 96.4049 22.0359C96.785 22.6062 97.0023 23.3123 97.1109 24.1269H93.7165C93.5535 23.3394 93.2005 22.8235 92.6574 22.5519C92.0871 22.2804 91.4626 22.1446 90.7294 22.1446C90.5121 22.1446 90.2134 22.1717 89.9147 22.1989C89.5888 22.2532 89.3173 22.3075 89.0186 22.4161C88.747 22.5248 88.5026 22.6877 88.3125 22.8778C88.1225 23.0679 88.0138 23.3394 88.0138 23.6653C88.0138 24.0726 88.1496 24.3713 88.4212 24.6157C88.6927 24.8601 89.0457 25.0502 89.5074 25.2403C89.9419 25.4032 90.4578 25.539 91.0281 25.6476C91.5983 25.7563 92.1958 25.892 92.7932 26.0278C93.3906 26.1636 93.9609 26.3265 94.5311 26.5166C95.1014 26.7067 95.6174 26.9511 96.0518 27.3041C96.4863 27.63 96.8665 28.0373 97.1381 28.5261C97.4096 29.0149 97.5454 29.6395 97.5454 30.3455C97.5454 31.2145 97.3553 31.9477 96.948 32.5723C96.5406 33.1697 96.0247 33.6856 95.4001 34.0658C94.7755 34.446 94.0423 34.7176 93.282 34.9076C92.4945 35.0706 91.7341 35.1792 90.9738 35.1792C90.0505 35.1792 89.1815 35.0706 88.394 34.8533C87.6065 34.6361 86.9004 34.3102 86.3302 33.9029C85.7599 33.4684 85.2983 32.9524 84.9724 32.3007C84.6465 31.6761 84.4565 30.9158 84.4293 30.0197H87.7151V30.0468H87.7423ZM98.4687 20.0264H100.94V15.573H104.198V19.9993H107.131V22.4161H104.198V30.2912C104.198 30.6442 104.226 30.9158 104.253 31.1873C104.28 31.4317 104.361 31.649 104.443 31.8119C104.551 31.9748 104.714 32.1106 104.905 32.1921C105.122 32.2736 105.393 32.3279 105.773 32.3279C105.991 32.3279 106.235 32.3279 106.452 32.3007C106.67 32.2736 106.914 32.2464 107.131 32.1921V34.7175C106.778 34.7719 106.425 34.799 106.072 34.8262C105.719 34.8805 105.393 34.8805 105.013 34.8805C104.144 34.8805 103.465 34.799 102.949 34.6361C102.433 34.4732 102.026 34.2288 101.727 33.93C101.429 33.6042 101.239 33.224 101.13 32.7624C101.021 32.3007 100.967 31.7304 100.94 31.133V22.4433H98.4687V19.9721V20.0264ZM109.412 20.0264H112.481V22.0359H112.535C112.997 21.167 113.621 20.5696 114.436 20.1894C115.251 19.8092 116.12 19.6191 117.097 19.6191C118.265 19.6191 119.27 19.8092 120.139 20.2437C121.008 20.651 121.714 21.1941 122.284 21.9273C122.854 22.6334 123.289 23.4752 123.56 24.4256C123.832 25.3761 123.995 26.408 123.995 27.467C123.995 28.4718 123.859 29.4222 123.615 30.3455C123.343 31.2688 122.963 32.1106 122.447 32.8167C121.931 33.5227 121.279 34.093 120.465 34.5275C119.65 34.9619 118.727 35.1792 117.64 35.1792C117.179 35.1792 116.69 35.1249 116.228 35.0434C115.767 34.962 115.305 34.8262 114.871 34.6361C114.436 34.446 114.029 34.2016 113.676 33.9029C113.296 33.6042 112.997 33.2512 112.752 32.871H112.698V40.2301H109.439V20.0264H109.412ZM120.79 27.4127C120.79 26.761 120.709 26.1093 120.519 25.4847C120.356 24.8601 120.084 24.317 119.731 23.8282C119.378 23.3394 118.944 22.9592 118.455 22.6605C117.939 22.3618 117.342 22.226 116.69 22.226C115.332 22.226 114.3 22.6877 113.594 23.6381C112.915 24.5886 112.562 25.8649 112.562 27.4399C112.562 28.2002 112.644 28.8791 112.834 29.5037C113.024 30.1283 113.268 30.6714 113.649 31.133C114.002 31.5947 114.436 31.9477 114.952 32.2192C115.468 32.4908 116.038 32.6266 116.717 32.6266C117.478 32.6266 118.075 32.4636 118.591 32.1649C119.107 31.8662 119.514 31.4589 119.867 30.9972C120.193 30.5084 120.437 29.9653 120.573 29.3408C120.709 28.689 120.79 28.0645 120.79 27.4127ZM126.52 14.4053H129.779V17.4738H126.52V14.4053ZM126.52 20.0264H129.779V34.7719H126.52V20.0264ZM132.685 14.4053H135.943V34.7719H132.685V14.4053ZM145.882 35.1792C144.714 35.1792 143.655 34.9891 142.732 34.5818C141.809 34.1744 141.048 33.6585 140.397 32.9796C139.772 32.3007 139.283 31.4589 138.957 30.5085C138.632 29.558 138.442 28.499 138.442 27.3856C138.442 26.2722 138.604 25.2403 138.957 24.2899C139.283 23.3394 139.772 22.5248 140.397 21.8187C141.021 21.1398 141.809 20.5967 142.732 20.2165C143.655 19.8364 144.714 19.6191 145.882 19.6191C147.05 19.6191 148.109 19.8092 149.032 20.2165C149.955 20.5967 150.716 21.1398 151.368 21.8187C151.992 22.4976 152.481 23.3394 152.807 24.2899C153.133 25.2403 153.323 26.2722 153.323 27.3856C153.323 28.5261 153.16 29.558 152.807 30.5085C152.454 31.4589 151.992 32.2736 151.368 32.9796C150.743 33.6585 149.955 34.2016 149.032 34.5818C148.109 34.9619 147.077 35.1792 145.882 35.1792ZM145.882 32.5994C146.588 32.5994 147.24 32.4365 147.756 32.1378C148.299 31.8391 148.706 31.4317 149.059 30.9429C149.412 30.4541 149.657 29.8839 149.82 29.2865C149.983 28.6619 150.064 28.0373 150.064 27.3856C150.064 26.761 149.983 26.1364 149.82 25.5119C149.657 24.8873 149.412 24.3442 149.059 23.8554C148.706 23.3666 148.272 22.9864 147.756 22.6877C147.213 22.389 146.588 22.226 145.882 22.226C145.176 22.226 144.524 22.389 144.008 22.6877C143.465 22.9864 143.058 23.3937 142.705 23.8554C142.352 24.3442 142.107 24.8873 141.945 25.5119C141.782 26.1364 141.7 26.761 141.7 27.3856C141.7 28.0373 141.782 28.6619 141.945 29.2865C142.107 29.911 142.352 30.4541 142.705 30.9429C143.058 31.4317 143.492 31.8391 144.008 32.1378C144.551 32.4636 145.176 32.5994 145.882 32.5994ZM154.3 20.0264H156.771V15.573H160.03V19.9993H162.963V22.4161H160.03V30.2912C160.03 30.6442 160.057 30.9158 160.084 31.1873C160.112 31.4317 160.193 31.649 160.274 31.8119C160.383 31.9748 160.546 32.1106 160.736 32.1921C160.953 32.2736 161.225 32.3279 161.605 32.3279C161.822 32.3279 162.067 32.3279 162.284 32.3007C162.501 32.2736 162.746 32.2464 162.963 32.1921V34.7175C162.61 34.7719 162.257 34.799 161.904 34.8262C161.551 34.8805 161.225 34.8805 160.845 34.8805C159.976 34.8805 159.297 34.799 158.781 34.6361C158.265 34.4732 157.858 34.2288 157.559 33.93C157.26 33.6042 157.07 33.224 156.962 32.7624C156.853 32.3007 156.799 31.7304 156.771 31.133V22.4433H154.3V19.9721V20.0264Z" fill="white"/>
<path d="M39.0527 14.4056H24.1443L19.555 0.230469L14.9386 14.4056L0.0302734 14.3785L12.0873 23.1497L7.47087 37.3248L19.5279 28.5536L31.5849 37.3248L26.9956 23.1497L39.0527 14.4056Z" fill="#00B67A"/>
<path d="M28.0272 26.3547L26.9953 23.1504L19.5547 28.5543L28.0272 26.3547Z" fill="#005128"/>
</svg>
